<svg width="34" height="32" viewBox="0 0 34 32" fill="none" xmlns="http://www.w3.org/2000/svg">
<path d="M1 1L1.45868 1.14646C3.74428 1.8763 4.88709 2.24121 5.54073 3.10998C6.19439 3.97873 6.19439 5.1327 6.19439 7.44064V11.7813C6.19439 16.4726 6.19439 18.8183 7.7158 20.2758C9.2372 21.7332 11.6859 21.7332 16.5832 21.7332H30.4349" stroke="white" stroke-width="2" stroke-linecap="round"/>
<path d="M10.523 25.8799C11.9574 25.8799 13.1202 26.9938 13.1202 28.3679C13.1202 29.7419 11.9574 30.8559 10.523 30.8559C9.08858 30.8559 7.92578 29.7419 7.92578 28.3679C7.92578 26.9938 9.08858 25.8799 10.523 25.8799Z" stroke="white" stroke-width="2"/>
<path d="M26.1089 25.8799C27.5433 25.8799 28.7061 26.9937 28.7061 28.3679C28.7061 29.7419 27.5433 30.8559 26.1089 30.8559C24.6746 30.8559 23.5117 29.7419 23.5117 28.3679C23.5117 26.9937 24.6746 25.8799 26.1089 25.8799Z" stroke="white" stroke-width="2"/>
<path d="M16.585 10.9517H11.3906" stroke="white" stroke-width="2" stroke-linecap="round"/>
<path d="M6.19141 5.97607H26.0174C29.5755 5.97607 31.3544 5.97607 32.1244 7.09444C32.8942 8.21282 32.1933 9.77928 30.7917 12.9123L30.0496 14.5709C29.3953 16.0335 29.068 16.7648 28.4175 17.1758C27.767 17.5867 26.9364 17.5867 25.2753 17.5867H6.19141" stroke="white" stroke-width="2"/>
</svg>
