<svg width="19" height="19" viewBox="0 0 19 19" fill="none" xmlns="http://www.w3.org/2000/svg">
<path d="M8.4703 14.6305V15.4006C8.4703 15.6048 8.38918 15.8006 8.24477 15.945C8.10036 16.0895 7.9045 16.1706 7.70028 16.1706H6.16022V16.9406C6.16022 17.3491 5.99797 17.7408 5.70915 18.0296C5.42033 18.3184 5.02861 18.4807 4.62017 18.4807H1.54006C1.13161 18.4807 0.739888 18.3184 0.451072 18.0296C0.162255 17.7408 0 17.3491 0 16.9406V14.9493C8.72247e-05 14.5409 0.1624 14.1492 0.451236 13.8605L6.41125 7.90048C6.0458 6.65956 6.08028 5.33509 6.5098 4.11486C6.93931 2.89464 7.74206 1.84059 8.80422 1.10218C9.86638 0.363772 11.134 -0.0215231 12.4275 0.000928312C13.7209 0.0233797 14.9744 0.452438 16.0103 1.22727C17.0462 2.00209 17.8119 3.08337 18.1988 4.31776C18.5857 5.55216 18.5742 6.87703 18.1659 8.10452C17.7576 9.33201 16.9732 10.3998 15.924 11.1565C14.8748 11.9132 13.6141 12.3205 12.3204 12.3204H10.7788V13.8605C10.7788 14.0647 10.6977 14.2606 10.5533 14.405C10.4089 14.5494 10.213 14.6305 10.0088 14.6305H8.46876H8.4703ZM13.8605 6.16022C14.2689 6.16022 14.6607 5.99797 14.9495 5.70915C15.2383 5.42033 15.4006 5.02861 15.4006 4.62017C15.4006 4.21172 15.2383 3.82 14.9495 3.53118C14.6607 3.24237 14.2689 3.08011 13.8605 3.08011C13.452 3.08011 13.0603 3.24237 12.7715 3.53118C12.4827 3.82 12.3204 4.21172 12.3204 4.62017C12.3204 5.02861 12.4827 5.42033 12.7715 5.70915C13.0603 5.99797 13.452 6.16022 13.8605 6.16022Z" fill="#00557C"/>
</svg>
