<svg width="28" height="22" viewBox="0 0 28 22" fill="none" xmlns="http://www.w3.org/2000/svg">
<path d="M25.6618 5.16667H26.1618V4.66667V2.625C26.1618 2.18844 25.8067 1.83333 25.3701 1.83333H2.62986C2.1933 1.83333 1.83819 2.18844 1.83819 2.625V4.66667V5.16667H2.33819H25.6618ZM2.33819 10.3889H1.83819V10.8889V19.1528C1.83819 19.5893 2.1933 19.9444 2.62986 19.9444H25.3701C25.8067 19.9444 26.1618 19.5893 26.1618 19.1528V10.8889V10.3889H25.6618H2.33819ZM2.33819 0.5H25.6618C26.6794 0.5 27.5 1.32196 27.5 2.33333V19.4444C27.5 20.4558 26.6794 21.2778 25.6618 21.2778H2.33819C1.3206 21.2778 0.5 20.4558 0.5 19.4444V2.33333C0.5 1.32196 1.3206 0.5 2.33819 0.5ZM8.83333 14.5833V16.5278C8.83333 16.5725 8.79469 16.6111 8.75 16.6111H5.25C5.20531 16.6111 5.16667 16.5725 5.16667 16.5278V14.5833C5.16667 14.5386 5.20531 14.5 5.25 14.5H8.75C8.79469 14.5 8.83333 14.5386 8.83333 14.5833ZM18.1667 14.5833V16.5278C18.1667 16.5725 18.128 16.6111 18.0833 16.6111H11.4722C11.4275 16.6111 11.3889 16.5725 11.3889 16.5278V14.5833C11.3889 14.5386 11.4275 14.5 11.4722 14.5H18.0833C18.128 14.5 18.1667 14.5386 18.1667 14.5833Z" fill="#57B39A" stroke="#59B59A"/>
</svg>
