<svg width="61" height="29" viewBox="0 0 61 29" fill="none" xmlns="http://www.w3.org/2000/svg">
<g clip-path="url(#clip0_634_1309)">
<path d="M0.0078125 3C0.0078125 1.34315 1.35096 0 3.00781 0H57.9926C59.6494 0 60.9926 1.34315 60.9926 3V26C60.9926 27.6569 59.6494 29 57.9926 29H3.00781C1.35096 29 0.0078125 27.6569 0.0078125 26V3Z" fill="black"/>
<path d="M12.5728 8.88346C13.1597 8.68657 13.7858 8.58157 14.4353 8.58157C17.2786 8.58157 19.6524 10.6134 20.1949 13.3147L24.2251 12.4878C23.3017 7.89903 19.2689 4.44434 14.4353 4.44434C13.3267 4.44434 12.265 4.62547 11.2686 4.96149L12.5728 8.88346Z" fill="#FFCB05"/>
<path d="M7.81748 22.0251L10.5434 18.9248C9.32782 17.8406 8.56091 16.2576 8.56091 14.4935C8.56091 12.732 9.32782 11.1491 10.5434 10.0675L7.81748 6.9646C5.75153 8.80745 4.44727 11.4982 4.44727 14.4935C4.44727 17.4914 5.75153 20.1822 7.81748 22.0251Z" fill="#00A4E0"/>
<path d="M20.1949 15.6799C19.6498 18.3786 17.2786 20.4078 14.4379 20.4078C13.7858 20.4078 13.1571 20.3028 12.5728 20.1033L11.2686 24.0305C12.265 24.3639 13.3293 24.5451 14.4379 24.5451C19.2663 24.5451 23.2965 21.0956 24.2251 16.5121L20.1949 15.6799Z" fill="#EF4123"/>
<path d="M27.7497 19.0534C27.6166 18.8382 27.4392 18.4943 27.3297 18.2396C26.6906 16.7485 26.6619 15.205 27.1993 13.7244C27.7914 12.0994 28.9235 10.8577 30.3869 10.2224C32.2259 9.42701 34.2579 9.5819 36.0213 10.6346C37.1404 11.2804 37.9334 12.2779 38.5359 13.6903C38.6116 13.8714 38.6794 14.063 38.7472 14.2284L27.7497 19.0534ZM31.4225 12.6192C30.1156 13.1836 29.4426 14.4174 29.5835 15.8612L35.1135 13.4645C34.1614 12.3409 32.925 11.9682 31.4225 12.6192ZM35.8022 17.8327C35.7996 17.8327 35.7996 17.8354 35.7996 17.8354L35.6848 17.7566C35.3535 18.2948 34.8396 18.7332 34.1901 19.0167C32.9537 19.5575 31.8085 19.4183 30.9842 18.6912L30.9086 18.8067C30.9086 18.8067 30.9086 18.804 30.906 18.804L29.5026 20.9173C29.8521 21.1614 30.2252 21.3662 30.6164 21.5316C32.1659 22.18 33.7519 22.1485 35.3144 21.4659C36.4439 20.9724 37.3308 20.2216 37.936 19.2687L35.8022 17.8327ZM42.5896 7.11426V18.8592L44.4051 19.5995L43.3747 22.0198L41.3714 21.1798C40.9227 20.9829 40.6149 20.6836 40.3854 20.345C40.1636 20.0011 39.9993 19.526 39.9993 18.8907V7.11426H42.5896ZM47.2901 15.8691C47.2901 14.8689 47.731 13.9711 48.4248 13.3621L46.5624 11.2725C45.2998 12.3961 44.5042 14.0368 44.5042 15.8639C44.5016 17.6936 45.2972 19.3369 46.5571 20.4605L48.417 18.3709C47.7258 17.7592 47.2901 16.8667 47.2901 15.8691ZM50.5978 19.2004C50.2326 19.2004 49.8778 19.1374 49.5491 19.0272L48.6596 21.6864C49.2674 21.8912 49.9169 22.0041 50.5951 22.0041C53.5428 22.0067 56.0026 19.9013 56.5739 17.1056L53.8401 16.5438C53.5297 18.0637 52.1968 19.2031 50.5978 19.2004ZM50.6056 9.73415C49.93 9.73415 49.2804 9.84441 48.6727 10.0465L49.5543 12.7084C49.8856 12.5982 50.2378 12.5378 50.603 12.5378C52.2046 12.5404 53.5402 13.685 53.8428 15.2076L56.5765 14.6511C56.0157 11.85 53.5558 9.73678 50.6056 9.73415Z" fill="white"/>
</g>
<defs>
<clipPath id="clip0_634_1309">
<rect width="61" height="29" fill="white"/>
</clipPath>
</defs>
</svg>
