<svg width="25" height="19" viewBox="0 0 25 19" fill="none" xmlns="http://www.w3.org/2000/svg">
<path d="M21.9306 0H2.26869C1.01571 0 0 1.01571 0 2.26869V15.8808C0 17.1338 1.01571 18.1495 2.26869 18.1495H21.9306C23.1836 18.1495 24.1993 17.1338 24.1993 15.8808V2.26869C24.1993 1.01571 23.1836 0 21.9306 0ZM21.9306 2.26869V4.1973C20.8709 5.0603 19.1814 6.40223 15.5695 9.23048C14.7735 9.85659 13.1968 11.3608 12.0997 11.3432C11.0027 11.361 9.42549 9.85635 8.62984 9.23048C5.01852 6.40266 3.32859 5.06044 2.26869 4.1973V2.26869H21.9306ZM2.26869 15.8808V7.10845C3.3517 7.97107 4.88755 9.18156 7.2285 11.0147C8.26156 11.8278 10.0707 13.623 12.0997 13.6121C14.1186 13.623 15.9049 11.8539 16.9704 11.015C19.3113 9.18198 20.8476 7.97117 21.9306 7.1085V15.8808H2.26869Z" fill="#59B59A"/>
</svg>
