<svg width="16" height="14" viewBox="0 0 16 14" fill="none" xmlns="http://www.w3.org/2000/svg">
<path d="M9.88203 7.63169C9.88203 8.25571 9.63413 8.85417 9.19288 9.29542C8.75163 9.73667 8.15317 9.98457 7.52915 9.98457C6.90513 9.98457 6.30666 9.73667 5.86541 9.29542C5.42416 8.85417 5.17627 8.25571 5.17627 7.63169C5.17627 7.00766 5.42416 6.4092 5.86541 5.96795C6.30666 5.5267 6.90513 5.27881 7.52915 5.27881C8.15317 5.27881 8.75163 5.5267 9.19288 5.96795C9.63413 6.4092 9.88203 7.00766 9.88203 7.63169V7.63169Z" fill="#00557C"/>
<path d="M0 7.6319C0 7.6319 2.82345 2.45557 7.52921 2.45557C12.235 2.45557 15.0584 7.6319 15.0584 7.6319C15.0584 7.6319 12.235 12.8082 7.52921 12.8082C2.82345 12.8082 0 7.6319 0 7.6319ZM7.52921 10.9259C8.40284 10.9259 9.24069 10.5789 9.85844 9.96113C10.4762 9.34338 10.8232 8.50553 10.8232 7.6319C10.8232 6.75827 10.4762 5.92042 9.85844 5.30267C9.24069 4.68492 8.40284 4.33787 7.52921 4.33787C6.65558 4.33787 5.81773 4.68492 5.19998 5.30267C4.58223 5.92042 4.23518 6.75827 4.23518 7.6319C4.23518 8.50553 4.58223 9.34338 5.19998 9.96113C5.81773 10.5789 6.65558 10.9259 7.52921 10.9259V10.9259Z" fill="#00557C"/>
<path d="M1.49561 1.9585L13.1349 12.6229" stroke="white" stroke-width="2" stroke-linecap="round"/>
<path d="M1.49561 1.9585L13.1349 12.6229" stroke="#00557C" stroke-width="1.2" stroke-linecap="round"/>
</svg>
