<svg width="21" height="21" viewBox="0 0 21 21" fill="none" xmlns="http://www.w3.org/2000/svg">
<path d="M12.6999 5.29998C12.5166 5.48691 12.414 5.73823 12.414 5.99998C12.414 6.26173 12.5166 6.51305 12.6999 6.69998L14.2999 8.29998C14.4868 8.48321 14.7381 8.58584 14.9999 8.58584C15.2616 8.58584 15.5129 8.48321 15.6999 8.29998L19.4699 4.52998C19.9727 5.64117 20.1249 6.87921 19.9063 8.07913C19.6877 9.27904 19.1086 10.3838 18.2461 11.2463C17.3837 12.1087 16.2789 12.6878 15.079 12.9064C13.8791 13.1251 12.641 12.9728 11.5299 12.47L4.61986 19.38C4.22203 19.7778 3.68246 20.0013 3.11986 20.0013C2.55725 20.0013 2.01768 19.7778 1.61986 19.38C1.22203 18.9822 0.998535 18.4426 0.998535 17.88C0.998535 17.3174 1.22203 16.7778 1.61986 16.38L8.52986 9.46998C8.02702 8.35879 7.87477 7.12075 8.0934 5.92083C8.31202 4.72092 8.89114 3.61614 9.75358 2.7537C10.616 1.89127 11.7208 1.31215 12.9207 1.09352C14.1206 0.874895 15.3587 1.02714 16.4699 1.52998L12.7099 5.28998L12.6999 5.29998Z" stroke="#00557C" stroke-width="1.5" stroke-linecap="round" stroke-linejoin="round"/>
</svg>
