<svg width="44" height="43" viewBox="0 0 44 43" fill="none" xmlns="http://www.w3.org/2000/svg">
<g clip-path="url(#clip0_254_1834)">
<path opacity="0.122" fill-rule="evenodd" clip-rule="evenodd" d="M28.0314 41.9403C28.0436 41.9403 28.0559 41.9403 28.0681 41.9403C28.1154 41.9489 28.1521 41.9367 28.1781 41.9043C28.1781 41.8803 28.1903 41.8684 28.2148 41.8684C28.2392 41.9162 28.2636 41.9162 28.2881 41.8684C28.3003 41.8684 28.3126 41.8684 28.3248 41.8684C28.3611 41.8745 28.3856 41.8627 28.3981 41.8325C28.4103 41.8325 28.4226 41.8325 28.4348 41.8325C28.4711 41.8386 28.4956 41.8267 28.5081 41.7966C28.5326 41.7847 28.557 41.7725 28.5814 41.7607C28.5936 41.8084 28.6059 41.8084 28.6181 41.7607C28.6426 41.7488 28.667 41.7366 28.6914 41.7247C28.7036 41.7725 28.7159 41.7725 28.7281 41.7247C28.7526 41.7247 28.777 41.7247 28.8014 41.7247C28.8259 41.7247 28.8381 41.7129 28.8381 41.6888C34.3763 39.8251 38.3791 36.2928 40.8464 31.0915C41.872 28.8035 42.4282 26.4086 42.5148 23.9069C42.5514 16.4408 42.5635 8.96882 42.5514 1.49081C35.212 1.47884 27.8786 1.49082 20.5514 1.52673C20.2813 1.52016 20.0124 1.53213 19.7448 1.56266C19.553 1.56066 19.3696 1.58461 19.1948 1.6345C13.3468 2.32379 8.59843 4.91026 4.94977 9.3939C2.21647 12.9062 0.755915 16.8817 0.568101 21.3204C0.542882 21.8239 0.451215 21.812 0.293101 21.2845C0.205029 19.4692 0.412807 17.6851 0.916435 15.9319C2.56339 10.2252 5.99173 5.88443 11.2014 2.90977C14.1894 1.28576 17.3916 0.387682 20.8081 0.215538C28.0926 0.191589 35.377 0.191589 42.6614 0.215538C43.1095 0.227937 43.4333 0.425513 43.6331 0.80827C43.7226 1.02739 43.7713 1.25491 43.7798 1.49081C43.8043 8.75925 43.8043 16.0277 43.7798 23.2962C43.5103 29.1097 41.1944 33.9653 36.8314 37.863C34.911 39.5014 32.7477 40.7588 30.3414 41.6349C29.7373 41.8444 29.12 41.9938 28.4898 42.084C28.3239 42.0671 28.1712 42.0193 28.0314 41.9403Z" fill="#030303"/>
<path fill-rule="evenodd" clip-rule="evenodd" d="M20.5502 1.52671C27.8713 1.52671 35.1924 1.52671 42.5135 1.52671C42.5135 8.98676 42.5135 16.4468 42.5135 23.9068C42.427 26.4086 41.8708 28.8035 40.8452 31.0915C38.3779 36.2928 34.3751 39.8251 28.8369 41.6888C28.8124 41.6888 28.8002 41.7006 28.8002 41.7247C28.7757 41.7247 28.7513 41.7247 28.7269 41.7247C28.7147 41.7247 28.7024 41.7247 28.6902 41.7247C28.6657 41.7366 28.6413 41.7488 28.6169 41.7606C28.6047 41.7606 28.5924 41.7606 28.5802 41.7606C28.5557 41.7725 28.5313 41.7847 28.5069 41.7966C28.4705 41.7904 28.4461 41.8023 28.4335 41.8325C28.4213 41.8325 28.4091 41.8325 28.3969 41.8325C28.3605 41.8264 28.3361 41.8382 28.3235 41.8684C28.3113 41.8684 28.2991 41.8684 28.2869 41.8684C28.2624 41.8684 28.238 41.8684 28.2135 41.8684C28.1891 41.8684 28.1769 41.8803 28.1769 41.9043C28.1295 41.8957 28.0929 41.9079 28.0669 41.9402C28.0547 41.9402 28.0424 41.9402 28.0302 41.9402C27.9202 41.9643 27.8102 41.988 27.7002 42.0121C32.6301 40.2299 36.2417 37.0206 38.5352 32.3847C39.5894 30.1644 40.1577 27.8294 40.2402 25.3797C40.2769 18.2969 40.289 11.208 40.2769 4.11318C33.2613 4.10718 26.2457 4.11318 19.2302 4.13114C19.0401 4.13739 18.8568 4.15535 18.6802 4.18502C13.1989 4.69948 8.68278 6.99856 5.13187 11.0823C2.49032 14.2481 0.980876 17.8763 0.603536 21.967C0.567251 21.7583 0.55503 21.5427 0.566869 21.3204C0.754683 16.8817 2.21524 12.9062 4.94854 9.39388C8.5972 4.91024 13.3455 2.32377 19.1935 1.63448C19.386 1.64158 19.5694 1.61763 19.7435 1.56264C20.0112 1.53211 20.28 1.52013 20.5502 1.52671Z" fill="#FDFDFE"/>
<path opacity="0.922" fill-rule="evenodd" clip-rule="evenodd" d="M19.7453 1.56268C19.5711 1.61767 19.3878 1.64162 19.1953 1.63452C19.3702 1.58463 19.5535 1.56068 19.7453 1.56268Z" fill="#B8B8B8"/>
<path opacity="0.604" fill-rule="evenodd" clip-rule="evenodd" d="M20.5508 1.52674C27.878 1.49082 35.2113 1.47885 42.5508 1.49081C42.5629 8.96883 42.5508 16.4408 42.5141 23.9069C42.5141 16.4468 42.5141 8.98679 42.5141 1.52674C35.193 1.52674 27.8719 1.52674 20.5508 1.52674Z" fill="#9D9D9D"/>
<path opacity="0.992" fill-rule="evenodd" clip-rule="evenodd" d="M40.2436 25.3797C40.2436 18.3029 40.2436 11.226 40.2436 4.14914C33.0567 4.13793 25.8701 4.14989 18.6836 4.18506C18.8602 4.15539 19.0435 4.13742 19.2336 4.13117C26.2491 4.11321 33.2647 4.10721 40.2803 4.11321C40.2924 11.2081 40.2803 18.2969 40.2436 25.3797Z" fill="#226A8C"/>
<path fill-rule="evenodd" clip-rule="evenodd" d="M40.2401 25.3797C40.1576 27.8295 39.5892 30.1645 38.5351 32.3847C36.2416 37.0206 32.63 40.23 27.7001 42.0121C26.1831 42.5154 24.6309 42.8387 23.0434 42.9821C15.5512 42.9821 8.05896 42.9821 0.566749 42.9821C0.555126 35.9767 0.56735 28.9718 0.603416 21.967C0.980756 17.8764 2.4902 14.2481 5.13175 11.0823C8.68266 6.99861 13.1987 4.69952 18.6801 4.18507C25.8666 4.1499 33.0532 4.13794 40.2401 4.14915C40.2401 11.226 40.2401 18.3029 40.2401 25.3797Z" fill="#00557C"/>
</g>
<defs>
<clipPath id="clip0_254_1834">
<rect width="44" height="43" fill="white"/>
</clipPath>
</defs>
</svg>
