<svg width="115" height="41" viewBox="0 0 115 41" fill="none" xmlns="http://www.w3.org/2000/svg">
<path fill-rule="evenodd" clip-rule="evenodd" d="M19.4331 0C19.8377 0 20.2422 0 20.6467 0C20.6467 2.82799 20.6467 5.65613 20.6467 8.48412C20.2422 8.48412 19.8377 8.48412 19.4331 8.48412C19.3414 7.80748 19.0267 7.27437 18.4892 6.88466C12.4128 5.73791 9.0194 8.31096 8.30865 14.6038C8.24123 15.4835 8.21884 16.3643 8.24123 17.2464C10.2644 17.2696 12.287 17.2464 14.3091 17.1769C14.6257 17.1287 14.8729 16.9664 15.0508 16.6901C15.1778 16.2903 15.3351 15.9195 15.5227 15.5774C15.9272 15.5774 16.3318 15.5774 16.7363 15.5774C16.7363 18.4054 16.7363 21.2335 16.7363 24.0615C16.3318 24.0615 15.9272 24.0615 15.5227 24.0615C15.4085 23.1553 14.9142 22.5989 14.0394 22.3925C12.1305 22.254 10.1978 22.2077 8.24123 22.2534C8.19646 27.4696 8.2415 32.6621 8.37607 37.8308C8.54246 38.7435 9.08183 39.2071 9.99417 39.2217C9.99417 39.6852 9.99417 40.1489 9.99417 40.6125C6.71306 40.6125 3.43181 40.6125 0.150699 40.6125C0.12845 40.1466 0.150969 39.683 0.21812 39.2217C0.958134 39.1069 1.4526 38.6897 1.70138 37.9699C1.79132 31.8965 1.79132 25.8233 1.70138 19.7499C1.34324 19.1583 0.826393 18.7875 0.150699 18.6372C0.0176099 18.1827 -0.0272925 17.719 0.0158569 17.2464C0.600128 17.2464 1.18453 17.2464 1.7688 17.2464C1.41134 13.1105 2.37775 9.3552 4.66791 5.98061C6.52927 3.7109 8.88901 2.36637 11.7471 1.94718C13.7464 1.87485 15.7242 1.78208 17.6802 1.66901C18.6996 1.59084 19.2839 1.03451 19.4331 0Z" fill="#00557C"/>
<path fill-rule="evenodd" clip-rule="evenodd" d="M31.2627 1.2599C30.5454 1.39261 30.034 1.81258 29.7283 2.5198C29.6393 14.3722 29.6393 26.2245 29.7283 38.077C29.93 38.9187 30.4415 39.3853 31.2627 39.4769C31.2627 39.8969 31.2627 40.3168 31.2627 40.7368C28.1048 40.7368 24.947 40.7368 21.7891 40.7368C21.7891 40.3168 21.7891 39.8969 21.7891 39.4769C22.5999 39.3586 23.0891 38.892 23.2568 38.077C23.3901 25.4083 23.4347 12.7159 23.3902 0C26.0145 0 28.6385 0 31.2627 0C31.2627 0.419967 31.2627 0.839934 31.2627 1.2599Z" fill="#00557C"/>
<path fill-rule="evenodd" clip-rule="evenodd" d="M73.0966 24.0615C72.9093 24.7248 72.8194 25.4202 72.8269 26.1477C72.6719 30.0363 72.6495 33.9306 72.7595 37.8308C73.0972 38.6449 73.7039 39.1084 74.5799 39.2216C74.5799 39.6852 74.5799 40.1489 74.5799 40.6125C71.2537 40.6125 67.9277 40.6125 64.6016 40.6125C64.6016 40.1489 64.6016 39.6852 64.6016 39.2216C65.4759 39.1333 66.0378 38.6698 66.2871 37.8308C66.377 29.9493 66.377 22.068 66.2871 14.1865C66.2462 13.8544 66.1338 13.553 65.95 13.2825C65.5181 13.0039 65.0687 12.7953 64.6016 12.6566C64.6016 12.2394 64.6016 11.8221 64.6016 11.4048C67.2984 11.4048 69.9952 11.4048 72.6921 11.4048C72.6697 12.7038 72.6921 14.002 72.7595 15.2992C74.2823 13.041 76.3723 11.7197 79.0297 11.3353C79.2592 11.0245 79.394 10.6767 79.4342 10.2922C79.8836 10.2922 80.3332 10.2922 80.7826 10.2922C80.7826 13.352 80.7826 16.4119 80.7826 19.4717C80.3332 19.4717 79.8836 19.4717 79.4342 19.4717C79.3549 18.8087 78.9953 18.3682 78.3555 18.1504C76.2159 18.1074 74.7101 19.1043 73.8382 21.1407C73.4432 22.0755 73.1959 23.0491 73.0966 24.0615Z" fill="#00557C"/>
<path fill-rule="evenodd" clip-rule="evenodd" d="M105.462 13.4912C105.47 13.5667 105.515 13.613 105.597 13.6303C105.731 12.8942 105.776 12.1525 105.731 11.4049C108.698 11.4049 111.664 11.4049 114.631 11.4049C114.631 11.8685 114.631 12.3322 114.631 12.7957C113.852 12.8371 113.29 13.208 112.945 13.9084C112.856 21.6508 112.856 29.3931 112.945 37.1354C113.145 37.9663 113.662 38.4299 114.496 38.5263C114.496 38.9435 114.496 39.3608 114.496 39.778C111.53 39.778 108.563 39.778 105.597 39.778C105.641 38.9844 105.596 38.1964 105.462 37.4136C105.38 37.4309 105.335 37.4772 105.327 37.5527C99.3063 41.7749 93.2833 41.7981 87.258 37.6222C82.517 33.062 80.9214 27.5218 82.4711 21.0017C84.615 14.9905 88.7726 11.5366 94.944 10.6399C98.7958 10.2885 102.302 11.239 105.462 13.4912Z" fill="#00557C"/>
<path fill-rule="evenodd" clip-rule="evenodd" d="M45.992 10.7095C49.9027 10.4621 53.5885 11.2734 57.0491 13.1435C61.3729 16.0119 63.5304 20.1149 63.5215 25.4524C63.4113 33.0531 59.8155 37.8978 52.7341 39.9867C49.5968 40.7586 46.4505 40.8049 43.2952 40.1258C36.4215 37.8794 32.8256 33.0346 32.5078 25.5915C32.7902 18.5851 36.1162 13.8795 42.4861 11.4745C43.6615 11.1707 44.8301 10.9158 45.992 10.7095Z" fill="#00557C"/>
<path fill-rule="evenodd" clip-rule="evenodd" d="M46.6736 15.8554C53.68 15.7804 57.1635 19.3502 57.1239 26.5649C56.6987 31.546 54.1142 34.49 49.3705 35.3967C43.7219 35.8355 40.2835 33.2161 39.0551 27.5385C38.5861 24.5488 39.1703 21.8135 40.808 19.3325C42.363 17.4303 44.3182 16.2713 46.6736 15.8554Z" fill="white"/>
<path fill-rule="evenodd" clip-rule="evenodd" d="M95.8891 15.8555C98.8623 15.4707 101.469 16.2819 103.71 18.2895C105.865 20.8675 106.697 23.8578 106.205 27.2604C105.73 31.4125 103.55 34.0783 99.6647 35.2577C92.6942 36.1817 88.8737 33.029 88.2031 25.8C88.2492 21.483 90.137 18.3768 93.8665 16.4814C94.5547 16.2622 95.2289 16.0536 95.8891 15.8555Z" fill="white"/>
</svg>
