<svg width="85" height="85" viewBox="0 0 85 85" fill="none" xmlns="http://www.w3.org/2000/svg">
<g clip-path="url(#clip0_254_1757)">
<path opacity="0.122" fill-rule="evenodd" clip-rule="evenodd" d="M54.1517 82.9052C54.1753 82.9052 54.199 82.9052 54.2226 82.9052C54.314 82.9223 54.3848 82.8981 54.4351 82.8342C54.4351 82.7866 54.4586 82.7632 54.5059 82.7632C54.5531 82.8577 54.6003 82.8577 54.6476 82.7632C54.6711 82.7632 54.6948 82.7632 54.7184 82.7632C54.7887 82.7753 54.8358 82.7518 54.8601 82.6922C54.8836 82.6922 54.9073 82.6922 54.9309 82.6922C55.0012 82.7043 55.0483 82.6808 55.0726 82.6212C55.1198 82.5978 55.167 82.5736 55.2142 82.5502C55.2378 82.6446 55.2615 82.6446 55.2851 82.5502C55.3323 82.5267 55.3795 82.5026 55.4267 82.4792C55.4503 82.5736 55.474 82.5736 55.4976 82.4792C55.5448 82.4792 55.592 82.4792 55.6392 82.4792C55.6865 82.4792 55.7101 82.4557 55.7101 82.4082C66.4089 78.7241 74.1416 71.7416 78.908 61.46C80.8892 56.9372 81.9637 52.2031 82.1309 47.2578C82.2017 32.4994 82.2251 17.7291 82.2017 2.94702C68.0232 2.92336 53.8566 2.94704 39.7017 3.01803C39.1798 3.00502 38.6604 3.02869 38.1434 3.08904C37.7729 3.08508 37.4187 3.13243 37.0809 3.23106C25.7836 4.5936 16.6107 9.7064 9.56214 18.5694C4.28191 25.5123 1.46038 33.3708 1.09756 42.145C1.04884 43.1404 0.871755 43.1167 0.566307 42.074C0.396168 38.4857 0.797557 34.9589 1.77047 31.4934C4.95209 20.2126 11.575 11.6321 21.6392 5.75194C27.4115 2.54169 33.5976 0.766415 40.1976 0.426131C54.2698 0.37879 68.342 0.37879 82.4142 0.426131C83.2798 0.45064 83.9053 0.841196 84.2913 1.59781C84.4641 2.03096 84.5583 2.48069 84.5746 2.94702C84.6221 17.3149 84.6221 31.6828 84.5746 46.0506C84.054 57.5426 79.5802 67.1408 71.1517 74.8455C67.4418 78.0843 63.2627 80.5697 58.6142 82.3016C57.4471 82.7156 56.2547 83.011 55.0371 83.1893C54.7168 83.1559 54.4217 83.0615 54.1517 82.9052Z" fill="#030303"/>
<path fill-rule="evenodd" clip-rule="evenodd" d="M39.7024 3.01786C53.8455 3.01786 67.9885 3.01786 82.1316 3.01786C82.1316 17.7645 82.1316 32.511 82.1316 47.2576C81.9644 52.203 80.8899 56.937 78.9087 61.4598C74.1423 71.7415 66.4097 78.724 55.7108 82.408C55.6635 82.408 55.6399 82.4314 55.6399 82.479C55.5927 82.479 55.5455 82.479 55.4983 82.479C55.4747 82.479 55.451 82.479 55.4274 82.479C55.3802 82.5024 55.333 82.5266 55.2858 82.55C55.2622 82.55 55.2385 82.55 55.215 82.55C55.1677 82.5735 55.1205 82.5976 55.0733 82.621C55.003 82.609 54.9558 82.6324 54.9316 82.692C54.908 82.692 54.8844 82.692 54.8608 82.692C54.7905 82.68 54.7433 82.7034 54.7191 82.7631C54.6955 82.7631 54.6719 82.7631 54.6483 82.7631C54.601 82.7631 54.5539 82.7631 54.5066 82.7631C54.4594 82.7631 54.4358 82.7865 54.4358 82.8341C54.3443 82.817 54.2735 82.8412 54.2233 82.9051C54.1997 82.9051 54.176 82.9051 54.1525 82.9051C53.9399 82.9527 53.7274 82.9995 53.5149 83.0471C63.0386 79.5243 70.0156 73.1801 74.4462 64.0162C76.4827 59.6273 77.5806 55.0116 77.74 50.1691C77.8108 36.1681 77.8342 22.1554 77.8108 8.13064C64.258 8.11878 50.7052 8.13064 37.1525 8.16615C36.7853 8.1785 36.4311 8.21401 36.09 8.27267C25.501 9.28961 16.7767 13.8343 9.91703 21.9067C4.81404 28.1648 1.89807 35.3369 1.16912 43.423C1.09902 43.0105 1.07541 42.5844 1.09828 42.1448C1.46111 33.3707 4.28264 25.5122 9.56287 18.5692C16.6114 9.70623 25.7843 4.59344 37.0816 3.23089C37.4535 3.24492 37.8077 3.19758 38.1441 3.08887C38.6611 3.02853 39.1805 3.00486 39.7024 3.01786Z" fill="#FDFDFE"/>
<path opacity="0.922" fill-rule="evenodd" clip-rule="evenodd" d="M38.1436 3.08885C37.8071 3.19756 37.4529 3.2449 37.0811 3.23087C37.4189 3.13224 37.773 3.0849 38.1436 3.08885Z" fill="#B8B8B8"/>
<path opacity="0.604" fill-rule="evenodd" clip-rule="evenodd" d="M39.7021 3.01787C53.857 2.94688 68.0237 2.9232 82.2021 2.94685C82.2255 17.729 82.2021 32.4992 82.1313 47.2576C82.1313 32.511 82.1313 17.7645 82.1313 3.01787C67.9882 3.01787 53.8452 3.01787 39.7021 3.01787Z" fill="#9D9D9D"/>
<path opacity="0.992" fill-rule="evenodd" clip-rule="evenodd" d="M77.7398 50.1691C77.7398 36.18 77.7398 22.1908 77.7398 8.20168C63.8562 8.17952 49.9728 8.20317 36.0898 8.27269C36.431 8.21404 36.7851 8.17853 37.1523 8.16617C50.7051 8.13067 64.2579 8.11881 77.8107 8.13067C77.8341 22.1554 77.8107 36.1682 77.7398 50.1691Z" fill="#226A8C"/>
<path fill-rule="evenodd" clip-rule="evenodd" d="M77.7397 50.1691C77.5803 55.0116 76.4824 59.6273 74.446 64.0162C70.0154 73.1801 63.0383 79.5242 53.5147 83.0471C50.5842 84.0419 47.5856 84.681 44.5189 84.9644C30.0453 84.9644 15.5716 84.9644 1.09805 84.9644C1.0756 71.1166 1.09921 57.2696 1.16889 43.423C1.89784 35.3369 4.81381 28.1648 9.9168 21.9067C16.7765 13.8343 25.5008 9.2896 36.0897 8.27265C49.9727 8.20313 63.856 8.17948 77.7397 8.20164C77.7397 22.1908 77.7397 36.1799 77.7397 50.1691Z" fill="#00557C"/>
<path fill-rule="evenodd" clip-rule="evenodd" d="M25.8896 36.8192C25.8896 36.6062 25.8896 36.3932 25.8896 36.1801C24.4966 36.1801 23.1036 36.1801 21.7105 36.1801C21.7341 42.6304 21.7104 49.0688 21.6396 55.4951C21.6396 49.0331 21.6396 42.5711 21.6396 36.1091C23.0799 36.1091 24.5202 36.1091 25.9605 36.1091C25.9827 36.3607 25.959 36.5973 25.8896 36.8192Z" fill="#7AA6BA"/>
<path fill-rule="evenodd" clip-rule="evenodd" d="M19.5853 36.1799C19.7978 36.1799 20.0103 36.1799 20.2228 36.1799C20.2228 37.6238 20.2228 39.0677 20.2228 40.5116C20.0103 40.5116 19.7978 40.5116 19.5853 40.5116C19.5371 40.1661 19.3718 39.8939 19.0894 39.695C15.8975 39.1095 14.1149 40.4232 13.7415 43.6361C13.7061 44.0852 13.6944 44.5349 13.7061 44.9853C14.7689 44.9971 15.8314 44.9853 16.8936 44.9498C17.0599 44.9252 17.1898 44.8423 17.2832 44.7012C17.3499 44.4971 17.4326 44.3078 17.5311 44.1331C17.7436 44.1331 17.9561 44.1331 18.1686 44.1331C18.1686 45.577 18.1686 47.0209 18.1686 48.4648C17.9561 48.4648 17.7436 48.4648 17.5311 48.4648C17.4711 48.0021 17.2114 47.7181 16.7519 47.6127C15.7492 47.542 14.7339 47.5183 13.7061 47.5417C13.6826 50.2049 13.7063 52.8559 13.7769 55.4949C13.8644 55.9609 14.1477 56.1975 14.6269 56.205C14.6269 56.4417 14.6269 56.6784 14.6269 56.9151C12.9034 56.9151 11.1797 56.9151 9.45612 56.9151C9.44443 56.6772 9.45626 56.4405 9.49153 56.205C9.88027 56.1464 10.14 55.9334 10.2707 55.5659C10.3179 52.4651 10.3179 49.3643 10.2707 46.2635C10.0826 45.9614 9.81106 45.7721 9.45612 45.6954C9.3862 45.4633 9.36262 45.2266 9.38528 44.9853C9.6922 44.9853 9.9992 44.9853 10.3061 44.9853C10.1183 42.8736 10.626 40.9563 11.829 39.2334C12.8068 38.0746 14.0464 37.3881 15.5478 37.1741C16.598 37.1372 17.6369 37.0898 18.6644 37.0321C19.1999 36.9922 19.5069 36.7081 19.5853 36.1799Z" fill="#FDFDFE"/>
<path fill-rule="evenodd" clip-rule="evenodd" d="M19.585 36.1802C19.8063 36.1106 20.0424 36.0869 20.2933 36.1091C20.2933 37.6004 20.2933 39.0916 20.2933 40.5828C20.0424 40.6051 19.8063 40.5813 19.585 40.5118C19.7975 40.5118 20.01 40.5118 20.2225 40.5118C20.2225 39.068 20.2225 37.624 20.2225 36.1802C20.01 36.1802 19.7975 36.1802 19.585 36.1802Z" fill="#9EBFCE"/>
<path fill-rule="evenodd" clip-rule="evenodd" d="M25.8895 36.819C25.5087 36.8863 25.2372 37.0994 25.0749 37.4581C25.0277 43.4704 25.0277 49.4826 25.0749 55.4949C25.182 55.9219 25.4535 56.1586 25.8895 56.205C25.8895 56.418 25.8895 56.6311 25.8895 56.8441C24.2131 56.8441 22.5368 56.8441 20.8604 56.8441C20.8604 56.6311 20.8604 56.418 20.8604 56.205C21.2908 56.145 21.5505 55.9083 21.6395 55.4949C21.7103 49.0685 21.7339 42.6302 21.7104 36.1799C23.1034 36.1799 24.4964 36.1799 25.8895 36.1799C25.8895 36.393 25.8895 36.606 25.8895 36.819Z" fill="#FEFEFE"/>
<path fill-rule="evenodd" clip-rule="evenodd" d="M18.6645 37.0323C17.637 37.09 16.5981 37.1374 15.5479 37.1743C15.6748 37.1169 15.8165 37.0813 15.9729 37.0678C16.8697 37.0323 17.767 37.0204 18.6645 37.0323Z" fill="#BFD3DE"/>
<path fill-rule="evenodd" clip-rule="evenodd" d="M47.777 48.4649C47.6786 48.8035 47.6313 49.1586 47.6353 49.5301C47.5538 51.5154 47.5421 53.5037 47.5999 55.495C47.7772 55.9106 48.096 56.1473 48.5561 56.2051C48.5561 56.4418 48.5561 56.6785 48.5561 56.9152C46.8089 56.9152 45.0617 56.9152 43.3145 56.9152C43.3145 56.6785 43.3145 56.4418 43.3145 56.2051C43.7737 56.16 44.0689 55.9233 44.1999 55.495C44.2471 51.471 44.2471 47.4471 44.1999 43.4231C44.1784 43.2535 44.1193 43.0997 44.0228 42.9615C43.7959 42.8193 43.5598 42.7128 43.3145 42.642C43.3145 42.429 43.3145 42.2159 43.3145 42.0029C44.7311 42.0029 46.1478 42.0029 47.5645 42.0029C47.5527 42.6661 47.5645 43.3289 47.5999 43.9912C48.3998 42.8383 49.4977 42.1637 50.8936 41.9674C51.0142 41.8087 51.085 41.6312 51.1061 41.4348C51.3422 41.4348 51.5784 41.4348 51.8145 41.4348C51.8145 42.9971 51.8145 44.5593 51.8145 46.1215C51.5784 46.1215 51.3422 46.1215 51.1061 46.1215C51.0645 45.783 50.8756 45.5581 50.5395 45.4469C49.4155 45.425 48.6245 45.9339 48.1665 46.9737C47.959 47.4509 47.8291 47.948 47.777 48.4649Z" fill="#FEFEFE"/>
<path fill-rule="evenodd" clip-rule="evenodd" d="M64.7773 43.068C64.7816 43.1065 64.8052 43.1302 64.8482 43.139C64.9186 42.7632 64.9422 42.3845 64.919 42.0028C66.4773 42.0028 68.0357 42.0028 69.594 42.0028C69.594 42.2395 69.594 42.4762 69.594 42.7129C69.1848 42.734 68.8897 42.9234 68.7086 43.281C68.6613 47.234 68.6613 51.1869 68.7086 55.1398C68.8133 55.564 69.0848 55.8007 69.5232 55.8499C69.5232 56.063 69.5232 56.276 69.5232 56.489C67.9648 56.489 66.4065 56.489 64.8482 56.489C64.8715 56.0838 64.8478 55.6815 64.7773 55.2818C64.7343 55.2907 64.7107 55.3143 64.7065 55.3529C61.5439 57.5085 58.3799 57.5204 55.2148 55.3884C52.7243 53.0601 51.8862 50.2315 52.7002 46.9026C53.8264 43.8335 56.0104 42.0701 59.2523 41.6123C61.2757 41.4328 63.1174 41.9181 64.7773 43.068Z" fill="#FDFDFE"/>
<path fill-rule="evenodd" clip-rule="evenodd" d="M33.5394 41.6479C35.5937 41.5215 37.5299 41.9358 39.3477 42.8906C41.6191 44.3551 42.7524 46.4499 42.7477 49.175C42.6898 53.0556 40.8009 55.5292 37.0811 56.5957C35.433 56.9898 33.7802 57.0134 32.1227 56.6667C28.5119 55.5198 26.623 53.0462 26.4561 49.246C26.6044 45.6689 28.3516 43.2664 31.6977 42.0384C32.3152 41.8833 32.929 41.7532 33.5394 41.6479Z" fill="#FDFDFE"/>
<path fill-rule="evenodd" clip-rule="evenodd" d="M47.5642 42.0029C46.1476 42.0029 44.7309 42.0029 43.3142 42.0029C43.3142 42.2159 43.3142 42.4289 43.3142 42.642C43.2449 42.42 43.2212 42.1834 43.2434 41.9318C44.696 41.9084 46.1362 41.9321 47.5642 42.0029Z" fill="#78A5BA"/>
<path fill-rule="evenodd" clip-rule="evenodd" d="M64.919 42.0029C64.9422 42.3846 64.9187 42.7633 64.8482 43.1391C64.8052 43.1303 64.7816 43.1067 64.7773 43.0681C64.8246 42.713 64.8718 42.358 64.919 42.0029Z" fill="#74A1B7"/>
<path fill-rule="evenodd" clip-rule="evenodd" d="M17.5312 44.1333C17.7526 44.0638 17.9887 44.04 18.2396 44.0623C18.2396 45.5535 18.2396 47.0447 18.2396 48.536C17.9887 48.5582 17.7526 48.5345 17.5312 48.4649C17.7438 48.4649 17.9563 48.4649 18.1688 48.4649C18.1688 47.0211 18.1688 45.5771 18.1688 44.1333C17.9563 44.1333 17.7438 44.1333 17.5312 44.1333Z" fill="#83ACBF"/>
<path fill-rule="evenodd" clip-rule="evenodd" d="M33.8939 44.2752C37.5744 44.237 39.4043 46.0595 39.3835 49.7431C39.1602 52.2863 37.8025 53.7894 35.3106 54.2523C32.3434 54.4763 30.5371 53.139 29.8918 50.2402C29.6455 48.7138 29.9524 47.3172 30.8127 46.0505C31.6295 45.0793 32.6566 44.4876 33.8939 44.2752Z" fill="#02557C"/>
<path fill-rule="evenodd" clip-rule="evenodd" d="M59.7475 44.2752C61.3093 44.0787 62.6788 44.4929 63.8558 45.5179C64.9881 46.8341 65.4248 48.3609 65.1662 50.0981C64.9168 52.218 63.7716 53.579 61.7308 54.1812C58.0691 54.6529 56.0622 53.0433 55.71 49.3525C55.7342 47.1484 56.7259 45.5625 58.685 44.5947C59.0465 44.4828 59.4007 44.3763 59.7475 44.2752Z" fill="#02557C"/>
<path fill-rule="evenodd" clip-rule="evenodd" d="M16.7519 47.6127C15.7602 47.6127 14.7686 47.6127 13.7769 47.6127C13.7769 50.2401 13.7769 52.8675 13.7769 55.4949C13.7062 52.8559 13.6825 50.2049 13.7061 47.5417C14.7339 47.5183 15.7491 47.5419 16.7519 47.6127Z" fill="#78A5B9"/>
<path fill-rule="evenodd" clip-rule="evenodd" d="M47.7767 48.4648C47.7806 48.8363 47.7334 49.1914 47.635 49.53C47.631 49.1585 47.6783 48.8035 47.7767 48.4648Z" fill="#5F91AB"/>
<path fill-rule="evenodd" clip-rule="evenodd" d="M64.7061 55.353C64.7103 55.3144 64.7339 55.2908 64.7769 55.282C64.8474 55.6816 64.871 56.084 64.8477 56.4892C66.4061 56.4892 67.9644 56.4892 69.5227 56.4892C69.5227 56.2761 69.5227 56.0631 69.5227 55.8501C69.5921 56.072 69.6157 56.3087 69.5936 56.5602C67.988 56.5602 66.3825 56.5602 64.7769 56.5602C64.7997 56.1442 64.7761 55.7418 64.7061 55.353Z" fill="#CDDDE5"/>
<path fill-rule="evenodd" clip-rule="evenodd" d="M20.8601 56.2051C20.8601 56.4181 20.8601 56.6311 20.8601 56.8442C22.5365 56.8442 24.2129 56.8442 25.8893 56.8442C25.8893 56.6311 25.8893 56.4181 25.8893 56.2051C25.9586 56.427 25.9823 56.6637 25.9601 56.9152C24.2365 56.9152 22.5129 56.9152 20.7893 56.9152C20.7671 56.6637 20.7908 56.427 20.8601 56.2051Z" fill="#D2E0E7"/>
</g>
<defs>
<clipPath id="clip0_254_1757">
<rect width="85" height="85" fill="white"/>
</clipPath>
</defs>
</svg>
