<svg width="21" height="20" viewBox="0 0 21 20" fill="none" xmlns="http://www.w3.org/2000/svg">
<path d="M20.9984 9.80091C21.0021 11.0658 20.7557 12.319 20.2733 13.4884C19.791 14.6577 19.0822 15.7201 18.1877 16.6146C17.2933 17.509 16.2309 18.2178 15.0615 18.7002C13.8922 19.1825 12.639 19.4289 11.3741 19.4252C11.142 19.4252 10.9195 19.3331 10.7554 19.169C10.5913 19.0049 10.4991 18.7824 10.4991 18.5503C10.4991 18.3183 10.5913 18.0957 10.7554 17.9316C10.9195 17.7675 11.142 17.6754 11.3741 17.6754C13.4625 17.6754 15.4654 16.8457 16.9422 15.369C18.4189 13.8922 19.2485 11.8893 19.2485 9.80091C19.2485 7.71248 18.4189 5.70958 16.9422 4.23283C15.4654 2.75609 13.4625 1.92646 11.3741 1.92646C9.35029 1.94251 7.40884 2.72992 5.94562 4.12811C4.4824 5.5263 3.6076 7.42997 3.49963 9.45094L3.76211 9.18845C3.9251 9.02872 4.14454 8.93977 4.37275 8.94092C4.60096 8.94207 4.8195 9.03324 4.98087 9.19461C5.14224 9.35598 5.2334 9.57451 5.23456 9.80272C5.23571 10.0309 5.14675 10.2504 4.98702 10.4134L3.23714 12.1632C3.16015 12.2487 3.06551 12.3165 2.95976 12.3618C2.85402 12.4071 2.73969 12.4289 2.62469 12.4257C2.50968 12.4289 2.39535 12.4071 2.28961 12.3618C2.18386 12.3165 2.08922 12.2487 2.01223 12.1632L0.262351 10.4134C0.179445 10.3344 0.113444 10.2393 0.0683484 10.1341C0.0232524 10.0288 0 9.91544 0 9.80091C0 9.68638 0.0232524 9.57305 0.0683484 9.46777C0.113444 9.36249 0.179445 9.26747 0.262351 9.18845C0.341366 9.10555 0.43639 9.03955 0.541667 8.99445C0.646943 8.94936 0.76028 8.9261 0.874808 8.9261C0.989337 8.9261 1.10267 8.94936 1.20795 8.99445C1.31323 9.03955 1.40825 9.10555 1.48727 9.18845L1.74975 9.45094C1.79616 6.8984 2.85466 4.46885 4.69238 2.69676C6.53011 0.924663 8.99653 -0.044817 11.5491 0.00159268C14.1016 0.0480023 16.5311 1.1065 18.3032 2.94423C20.0753 4.78196 21.0448 7.24838 20.9984 9.80091ZM11.3741 4.55128C11.2573 4.54426 11.1405 4.56208 11.0311 4.60357C10.9218 4.64506 10.8225 4.70927 10.7398 4.79196C10.6571 4.87464 10.5929 4.97393 10.5514 5.08326C10.5099 5.1926 10.4921 5.30949 10.4991 5.42622V9.80091C10.4921 9.91764 10.5099 10.0345 10.5514 10.1439C10.5929 10.2532 10.6571 10.3525 10.7398 10.4352C10.8225 10.5179 10.9218 10.5821 11.0311 10.6236C11.1405 10.665 11.2573 10.6829 11.3741 10.6758H15.7488C15.8655 10.6829 15.9824 10.665 16.0917 10.6236C16.2011 10.5821 16.3003 10.5179 16.383 10.4352C16.4657 10.3525 16.5299 10.2532 16.5714 10.1439C16.6129 10.0345 16.6307 9.91764 16.6237 9.80091C16.6307 9.68418 16.6129 9.56729 16.5714 9.45796C16.5299 9.34863 16.4657 9.24934 16.383 9.16665C16.3003 9.08396 16.2011 9.01975 16.0917 8.97827C15.9824 8.93678 15.8655 8.91895 15.7488 8.92597H12.249V5.42622C12.256 5.30949 12.2382 5.1926 12.1967 5.08326C12.1552 4.97393 12.091 4.87464 12.0083 4.79196C11.9256 4.70927 11.8264 4.64506 11.717 4.60357C11.6077 4.56208 11.4908 4.54426 11.3741 4.55128Z" fill="#00557C"/>
</svg>
