<svg width="26" height="26" viewBox="0 0 26 26" fill="none" xmlns="http://www.w3.org/2000/svg">
<path d="M23.4974 11.6451V4.38027C23.4974 2.77773 22.8139 2.13672 21.1157 2.13672H16.8007C15.1025 2.13672 14.4189 2.77773 14.4189 4.38027V11.6451C14.4189 13.2477 15.1025 13.8887 16.8007 13.8887H21.1157C22.8139 13.8887 23.4974 13.2477 23.4974 11.6451Z" fill="#00557C"/>
<path d="M23.4974 21.2604V19.3373C23.4974 17.7348 22.8139 17.0938 21.1157 17.0938H16.8007C15.1025 17.0938 14.4189 17.7348 14.4189 19.3373V21.2604C14.4189 22.8629 15.1025 23.5039 16.8007 23.5039H21.1157C22.8139 23.5039 23.4974 22.8629 23.4974 21.2604Z" fill="#00557C"/>
<path d="M11.2142 13.9955V21.2604C11.2142 22.8629 10.5307 23.5039 8.83245 23.5039H4.51751C2.8193 23.5039 2.13574 22.8629 2.13574 21.2604V13.9955C2.13574 12.393 2.8193 11.752 4.51751 11.752H8.83245C10.5307 11.752 11.2142 12.393 11.2142 13.9955Z" fill="#00557C"/>
<path d="M11.2142 4.38027V6.30332C11.2142 7.90586 10.5307 8.54688 8.83245 8.54688H4.51751C2.8193 8.54688 2.13574 7.90586 2.13574 6.30332V4.38027C2.13574 2.77773 2.8193 2.13672 4.51751 2.13672H8.83245C10.5307 2.13672 11.2142 2.77773 11.2142 4.38027Z" fill="#00557C"/>
</svg>
