<svg width="48" height="48" viewBox="0 0 48 48" fill="none" xmlns="http://www.w3.org/2000/svg">
<circle opacity="0.1" cx="24" cy="24" r="24" fill="#59B59A"/>
<path d="M32.3636 22.1818C32.3636 28.5455 24.1818 34 24.1818 34C24.1818 34 16 28.5455 16 22.1818C16 20.0119 16.862 17.9308 18.3964 16.3964C19.9308 14.862 22.0119 14 24.1818 14C26.3518 14 28.4328 14.862 29.9672 16.3964C31.5016 17.9308 32.3636 20.0119 32.3636 22.1818Z" stroke="#59B59A" stroke-width="2" stroke-linecap="round" stroke-linejoin="round"/>
<path d="M24.1814 24.9091C25.6876 24.9091 26.9086 23.6881 26.9086 22.1819C26.9086 20.6756 25.6876 19.4546 24.1814 19.4546C22.6751 19.4546 21.4541 20.6756 21.4541 22.1819C21.4541 23.6881 22.6751 24.9091 24.1814 24.9091Z" stroke="#59B59A" stroke-width="2" stroke-linecap="round" stroke-linejoin="round"/>
</svg>
