<svg width="48" height="48" viewBox="0 0 48 48" fill="none" xmlns="http://www.w3.org/2000/svg">
<circle opacity="0.1" cx="24" cy="24" r="24" fill="#59B59A"/>
<path d="M31.4969 17H16.5031C15.6719 17 15 17.6719 15 18.5V29.5C15 30.3281 15.6719 31 16.5031 31H31.4969C32.3281 31 33 30.3281 33 29.5V18.5C33 17.6719 32.3281 17 31.4969 17ZM16.6906 18.5H31.3094C31.4125 18.5 31.4969 18.5844 31.4969 18.6875V20H16.5031V18.6875C16.5031 18.5844 16.5875 18.5 16.6906 18.5ZM31.3094 29.5H16.6906C16.5875 29.5 16.5031 29.4156 16.5031 29.3125V24H31.4969V29.3125C31.4969 29.4156 31.4125 29.5 31.3094 29.5ZM21 26.375V27.625C21 27.8313 20.8313 28 20.625 28H18.375C18.1688 28 18 27.8313 18 27.625V26.375C18 26.1688 18.1688 26 18.375 26H20.625C20.8313 26 21 26.1688 21 26.375ZM27 26.375V27.625C27 27.8313 26.8313 28 26.625 28H22.375C22.1687 28 22 27.8313 22 27.625V26.375C22 26.1688 22.1687 26 22.375 26H26.625C26.8313 26 27 26.1688 27 26.375Z" fill="#59B59A"/>
</svg>
