<svg width="352" height="352" viewBox="0 0 352 352" fill="none" xmlns="http://www.w3.org/2000/svg">
<path opacity="0.122" fill-rule="evenodd" clip-rule="evenodd" d="M224.253 343.325C224.351 343.325 224.449 343.325 224.547 343.325C224.925 343.395 225.219 343.295 225.427 343.031C225.427 342.834 225.524 342.737 225.72 342.737C225.916 343.128 226.111 343.128 226.307 342.737C226.404 342.737 226.502 342.737 226.6 342.737C226.891 342.787 227.086 342.69 227.187 342.443C227.284 342.443 227.382 342.443 227.48 342.443C227.771 342.493 227.966 342.395 228.067 342.148C228.262 342.051 228.458 341.951 228.653 341.854C228.751 342.246 228.849 342.246 228.947 341.854C229.142 341.757 229.338 341.657 229.533 341.56C229.631 341.951 229.729 341.951 229.827 341.56C230.022 341.56 230.218 341.56 230.413 341.56C230.609 341.56 230.707 341.463 230.707 341.266C275.013 326.01 307.035 297.094 326.773 254.516C334.978 235.787 339.428 216.182 340.12 195.702C340.413 134.585 340.51 73.419 340.413 12.2037C281.698 12.1057 223.031 12.2037 164.413 12.4977C162.252 12.4439 160.101 12.5419 157.96 12.7918C156.426 12.7754 154.959 12.9715 153.56 13.3799C106.776 19.0225 68.7894 40.1954 39.6001 76.8987C17.7337 105.651 6.04928 138.194 4.54676 174.529C4.34501 178.651 3.61168 178.553 2.34676 174.235C1.64219 159.376 3.30441 144.771 7.33343 130.419C20.5091 83.7035 47.9358 48.17 89.6134 23.8194C113.517 10.5251 139.135 3.1734 166.467 1.76422C224.742 1.56818 283.018 1.56818 341.293 1.76422C344.878 1.86572 347.468 3.48308 349.067 6.61635C349.782 8.41011 350.173 10.2725 350.24 12.2037C350.437 71.7034 350.437 131.203 350.24 190.703C348.084 238.293 329.557 278.042 294.653 309.948C279.29 323.36 261.983 333.653 242.733 340.825C237.9 342.54 232.962 343.763 227.92 344.501C226.593 344.363 225.371 343.972 224.253 343.325Z" fill="#030303"/>
<path fill-rule="evenodd" clip-rule="evenodd" d="M164.413 12.4977C222.982 12.4977 281.551 12.4977 340.12 12.4977C340.12 73.5661 340.12 134.634 340.12 195.702C339.428 216.182 334.978 235.787 326.773 254.516C307.035 297.094 275.013 326.01 230.707 341.266C230.511 341.266 230.413 341.363 230.413 341.56C230.218 341.56 230.022 341.56 229.827 341.56C229.729 341.56 229.631 341.56 229.533 341.56C229.338 341.657 229.142 341.757 228.947 341.855C228.849 341.855 228.751 341.855 228.653 341.855C228.458 341.952 228.262 342.052 228.067 342.149C227.776 342.099 227.58 342.196 227.48 342.443C227.382 342.443 227.284 342.443 227.187 342.443C226.896 342.393 226.7 342.49 226.6 342.737C226.502 342.737 226.404 342.737 226.307 342.737C226.111 342.737 225.916 342.737 225.72 342.737C225.524 342.737 225.427 342.834 225.427 343.031C225.048 342.96 224.755 343.06 224.547 343.325C224.449 343.325 224.351 343.325 224.253 343.325C223.373 343.522 222.493 343.716 221.613 343.913C261.052 329.324 289.946 303.052 308.293 265.103C316.727 246.927 321.273 227.813 321.933 207.759C322.227 149.779 322.324 91.7495 322.227 33.6707C266.102 33.6215 209.978 33.6707 153.853 33.8177C152.333 33.8689 150.866 34.0159 149.453 34.2588C105.603 38.4701 69.474 57.2905 41.0667 90.72C19.9343 116.636 7.85873 146.337 4.84001 179.823C4.54973 178.114 4.45196 176.35 4.54667 174.53C6.04919 138.194 17.7337 105.651 39.6 76.8987C68.7893 40.1954 106.776 19.0225 153.56 13.3799C155.1 13.438 156.567 13.2419 157.96 12.7918C160.101 12.5419 162.252 12.4439 164.413 12.4977Z" fill="#FDFDFE"/>
<path opacity="0.922" fill-rule="evenodd" clip-rule="evenodd" d="M157.96 12.792C156.566 13.2421 155.1 13.4382 153.56 13.3801C154.958 12.9716 156.425 12.7756 157.96 12.792Z" fill="#B8B8B8"/>
<path opacity="0.604" fill-rule="evenodd" clip-rule="evenodd" d="M164.413 12.4978C223.031 12.2038 281.697 12.1058 340.413 12.2037C340.51 73.4191 340.413 134.585 340.12 195.702C340.12 134.634 340.12 73.5661 340.12 12.4978C281.551 12.4978 222.982 12.4978 164.413 12.4978Z" fill="#9D9D9D"/>
<path opacity="0.992" fill-rule="evenodd" clip-rule="evenodd" d="M321.933 207.759C321.933 149.828 321.933 91.8963 321.933 33.9648C264.438 33.8731 206.945 33.971 149.453 34.2589C150.866 34.016 152.332 33.869 153.853 33.8178C209.977 33.6708 266.102 33.6217 322.226 33.6708C322.323 91.7496 322.226 149.779 321.933 207.759Z" fill="#226A8C"/>
<path fill-rule="evenodd" clip-rule="evenodd" d="M321.933 207.759C321.273 227.813 316.727 246.928 308.293 265.103C289.946 303.052 261.052 329.324 221.613 343.913C209.478 348.033 197.06 350.68 184.36 351.853C124.422 351.853 64.4844 351.853 4.54669 351.853C4.4537 294.507 4.5515 237.164 4.84002 179.823C7.85874 146.337 19.9343 116.636 41.0667 90.7201C69.474 57.2907 105.603 38.4703 149.453 34.259C206.945 33.9711 264.439 33.8732 321.933 33.9649C321.933 91.8964 321.933 149.828 321.933 207.759Z" fill="#00557C"/>
<path fill-rule="evenodd" clip-rule="evenodd" d="M107.213 152.474C107.213 151.592 107.213 150.71 107.213 149.828C101.444 149.828 95.6756 149.828 89.9066 149.828C90.0043 176.539 89.9063 203.202 89.6133 229.814C89.6133 203.054 89.6133 176.294 89.6133 149.534C95.5776 149.534 101.542 149.534 107.507 149.534C107.598 150.575 107.5 151.555 107.213 152.474Z" fill="#7AA6BA"/>
<path fill-rule="evenodd" clip-rule="evenodd" d="M81.1065 149.828C81.9865 149.828 82.8665 149.828 83.7465 149.828C83.7465 155.807 83.7465 161.787 83.7465 167.766C82.8665 167.766 81.9865 167.766 81.1065 167.766C80.9071 166.336 80.2224 165.208 79.0532 164.385C65.8347 161.96 58.4527 167.4 56.9065 180.705C56.7599 182.565 56.7112 184.428 56.7599 186.293C61.161 186.342 65.561 186.293 69.9599 186.146C70.6486 186.044 71.1863 185.701 71.5732 185.116C71.8495 184.271 72.1918 183.487 72.5999 182.764C73.4799 182.764 74.3599 182.764 75.2399 182.764C75.2399 188.743 75.2399 194.723 75.2399 200.702C74.3599 200.702 73.4799 200.702 72.5999 200.702C72.3514 198.786 71.276 197.61 69.3732 197.173C65.2205 196.88 61.0161 196.782 56.7599 196.879C56.6625 207.908 56.7604 218.886 57.0532 229.815C57.4152 231.744 58.5885 232.725 60.5732 232.755C60.5732 233.736 60.5732 234.716 60.5732 235.696C53.4355 235.696 46.2975 235.696 39.1599 235.696C39.1115 234.711 39.1604 233.731 39.3065 232.755C40.9163 232.513 41.992 231.631 42.5332 230.109C42.7288 217.268 42.7288 204.427 42.5332 191.586C41.7541 190.335 40.6298 189.551 39.1599 189.233C38.8703 188.272 38.7727 187.292 38.8665 186.293C40.1375 186.293 41.4088 186.293 42.6799 186.293C41.9022 177.548 44.0046 169.608 48.9865 162.473C53.0357 157.674 58.169 154.831 64.3865 153.945C68.7358 153.792 73.0381 153.596 77.2932 153.357C79.5108 153.192 80.7818 152.015 81.1065 149.828Z" fill="#FDFDFE"/>
<path fill-rule="evenodd" clip-rule="evenodd" d="M81.1064 149.828C82.0231 149.54 83.0008 149.442 84.0398 149.534C84.0398 155.709 84.0398 161.885 84.0398 168.06C83.0008 168.152 82.0231 168.054 81.1064 167.766C81.9864 167.766 82.8664 167.766 83.7464 167.766C83.7464 161.787 83.7464 155.807 83.7464 149.828C82.8664 149.828 81.9864 149.828 81.1064 149.828Z" fill="#9EBFCE"/>
<path fill-rule="evenodd" clip-rule="evenodd" d="M107.213 152.475C105.636 152.754 104.512 153.636 103.84 155.121C103.644 180.019 103.644 204.917 103.84 229.815C104.284 231.583 105.408 232.563 107.213 232.755C107.213 233.638 107.213 234.52 107.213 235.402C100.271 235.402 93.329 235.402 86.3867 235.402C86.3867 234.52 86.3867 233.638 86.3867 232.755C88.1693 232.507 89.2447 231.527 89.6134 229.815C89.9064 203.202 90.0044 176.54 89.9067 149.828C95.6757 149.828 101.444 149.828 107.213 149.828C107.213 150.71 107.213 151.593 107.213 152.475Z" fill="#FEFEFE"/>
<path fill-rule="evenodd" clip-rule="evenodd" d="M77.2934 153.357C73.0383 153.596 68.736 153.792 64.3867 153.945C64.9124 153.707 65.499 153.56 66.1467 153.504C69.8609 153.357 73.5766 153.308 77.2934 153.357Z" fill="#BFD3DE"/>
<path fill-rule="evenodd" clip-rule="evenodd" d="M197.853 200.702C197.446 202.104 197.25 203.574 197.266 205.113C196.929 213.334 196.88 221.568 197.12 229.814C197.854 231.536 199.174 232.516 201.08 232.755C201.08 233.735 201.08 234.716 201.08 235.696C193.844 235.696 186.609 235.696 179.373 235.696C179.373 234.716 179.373 233.735 179.373 232.755C181.275 232.568 182.497 231.588 183.04 229.814C183.235 213.15 183.235 196.487 183.04 179.823C182.951 179.121 182.706 178.483 182.306 177.911C181.367 177.322 180.389 176.881 179.373 176.588C179.373 175.706 179.373 174.824 179.373 173.941C185.24 173.941 191.106 173.941 196.973 173.941C196.924 176.688 196.973 179.433 197.12 182.175C200.432 177.401 204.979 174.607 210.76 173.794C211.259 173.137 211.552 172.402 211.64 171.589C212.617 171.589 213.595 171.589 214.573 171.589C214.573 178.058 214.573 184.528 214.573 190.997C213.595 190.997 212.617 190.997 211.64 190.997C211.467 189.596 210.685 188.664 209.293 188.204C204.639 188.113 201.363 190.22 199.466 194.526C198.607 196.503 198.069 198.561 197.853 200.702Z" fill="#FEFEFE"/>
<path fill-rule="evenodd" clip-rule="evenodd" d="M268.253 178.353C268.271 178.512 268.369 178.61 268.547 178.647C268.838 177.091 268.936 175.522 268.84 173.942C275.293 173.942 281.747 173.942 288.2 173.942C288.2 174.922 288.2 175.902 288.2 176.882C286.505 176.97 285.283 177.754 284.533 179.235C284.338 195.605 284.338 211.974 284.533 228.344C284.967 230.101 286.091 231.081 287.907 231.285C287.907 232.167 287.907 233.049 287.907 233.932C281.453 233.932 275 233.932 268.547 233.932C268.643 232.254 268.545 230.587 268.253 228.932C268.075 228.969 267.978 229.067 267.96 229.227C254.863 238.154 241.761 238.203 228.653 229.374C218.34 219.732 214.869 208.018 218.24 194.232C222.904 181.523 231.948 174.22 245.373 172.324C253.752 171.581 261.379 173.591 268.253 178.353Z" fill="#FDFDFE"/>
<path fill-rule="evenodd" clip-rule="evenodd" d="M138.893 172.471C147.4 171.948 155.418 173.663 162.946 177.617C172.352 183.682 177.046 192.357 177.026 203.642C176.787 219.713 168.964 229.956 153.56 234.373C146.735 236.005 139.89 236.103 133.026 234.667C118.073 229.917 110.251 219.674 109.56 203.936C110.174 189.123 117.409 179.174 131.266 174.088C133.823 173.446 136.365 172.907 138.893 172.471Z" fill="#FDFDFE"/>
<path fill-rule="evenodd" clip-rule="evenodd" d="M196.974 173.942C191.107 173.942 185.24 173.942 179.374 173.942C179.374 174.824 179.374 175.706 179.374 176.588C179.086 175.669 178.988 174.689 179.08 173.648C185.096 173.551 191.06 173.648 196.974 173.942Z" fill="#78A5BA"/>
<path fill-rule="evenodd" clip-rule="evenodd" d="M268.84 173.941C268.936 175.522 268.838 177.09 268.546 178.647C268.368 178.61 268.271 178.512 268.253 178.352C268.449 176.882 268.644 175.412 268.84 173.941Z" fill="#74A1B7"/>
<path fill-rule="evenodd" clip-rule="evenodd" d="M72.5996 182.764C73.5163 182.476 74.494 182.377 75.5329 182.469C75.5329 188.645 75.5329 194.82 75.5329 200.996C74.494 201.088 73.5163 200.99 72.5996 200.702C73.4796 200.702 74.3596 200.702 75.2396 200.702C75.2396 194.722 75.2396 188.743 75.2396 182.764C74.3596 182.764 73.4796 182.764 72.5996 182.764Z" fill="#83ACBF"/>
<path fill-rule="evenodd" clip-rule="evenodd" d="M140.36 183.352C155.602 183.193 163.18 190.741 163.094 205.995C162.169 216.527 156.546 222.751 146.227 224.668C133.939 225.596 126.459 220.058 123.787 208.053C122.767 201.732 124.038 195.949 127.6 190.703C130.983 186.681 135.236 184.231 140.36 183.352Z" fill="#02557C"/>
<path fill-rule="evenodd" clip-rule="evenodd" d="M247.427 183.352C253.895 182.538 259.566 184.253 264.44 188.498C269.129 193.949 270.938 200.271 269.867 207.465C268.834 216.244 264.092 221.88 255.64 224.374C240.477 226.328 232.166 219.662 230.707 204.378C230.807 195.25 234.914 188.682 243.027 184.675C244.524 184.211 245.991 183.77 247.427 183.352Z" fill="#02557C"/>
<path fill-rule="evenodd" clip-rule="evenodd" d="M69.3734 197.173C65.2667 197.173 61.1601 197.173 57.0534 197.173C57.0534 208.053 57.0534 218.934 57.0534 229.815C56.7606 218.886 56.6627 207.908 56.7601 196.879C61.0163 196.782 65.2207 196.88 69.3734 197.173Z" fill="#78A5B9"/>
<path fill-rule="evenodd" clip-rule="evenodd" d="M197.853 200.702C197.87 202.24 197.674 203.71 197.267 205.113C197.25 203.574 197.446 202.104 197.853 200.702Z" fill="#5F91AB"/>
<path fill-rule="evenodd" clip-rule="evenodd" d="M267.96 229.226C267.978 229.067 268.075 228.969 268.253 228.932C268.545 230.587 268.643 232.253 268.547 233.931C275 233.931 281.453 233.931 287.907 233.931C287.907 233.049 287.907 232.167 287.907 231.285C288.194 232.204 288.292 233.184 288.2 234.225C281.551 234.225 274.902 234.225 268.253 234.225C268.348 232.503 268.25 230.836 267.96 229.226Z" fill="#CDDDE5"/>
<path fill-rule="evenodd" clip-rule="evenodd" d="M86.3862 232.755C86.3862 233.638 86.3862 234.52 86.3862 235.402C93.3285 235.402 100.271 235.402 107.213 235.402C107.213 234.52 107.213 233.638 107.213 232.755C107.5 233.674 107.598 234.654 107.506 235.696C100.369 235.696 93.2306 235.696 86.0929 235.696C86.0011 234.654 86.0991 233.674 86.3862 232.755Z" fill="#D2E0E7"/>
</svg>
