<svg width="155" height="37" viewBox="0 0 155 37" fill="none" xmlns="http://www.w3.org/2000/svg">
<path fill-rule="evenodd" clip-rule="evenodd" d="M16.6137 0C16.9596 0 17.3054 0 17.6512 0C17.6512 2.4177 17.6512 4.83552 17.6512 7.25322C17.3054 7.25322 16.9596 7.25322 16.6137 7.25322C16.5353 6.67475 16.2663 6.21898 15.8068 5.88581C10.6119 4.90544 7.71084 7.10519 7.10321 12.4851C7.04557 13.2371 7.02643 13.9902 7.04557 14.7443C8.77521 14.7641 10.5044 14.7443 12.2331 14.6848C12.5038 14.6437 12.7151 14.5049 12.8672 14.2686C12.9757 13.9269 13.1103 13.6099 13.2706 13.3174C13.6165 13.3174 13.9623 13.3174 14.3081 13.3174C14.3081 15.7351 14.3081 18.1529 14.3081 20.5706C13.9623 20.5706 13.6165 20.5706 13.2706 20.5706C13.173 19.7958 12.7504 19.3202 12.0026 19.1437C10.3706 19.0253 8.71826 18.9857 7.04557 19.0248C7.00729 23.4843 7.0458 27.9234 7.16085 32.3422C7.3031 33.1225 7.76422 33.5188 8.54419 33.5313C8.54419 33.9276 8.54419 34.324 8.54419 34.7203C5.73911 34.7203 2.93392 34.7203 0.128835 34.7203C0.109814 34.322 0.129066 33.9257 0.186475 33.5313C0.819125 33.4332 1.24185 33.0765 1.45454 32.4611C1.53143 27.2689 1.53143 22.0768 1.45454 16.8846C1.14836 16.3787 0.706498 16.0617 0.128835 15.9333C0.015055 15.5447 -0.0233329 15.1483 0.0135564 14.7443C0.51306 14.7443 1.01268 14.7443 1.51218 14.7443C1.20658 11.2084 2.03278 7.99793 3.99068 5.11293C5.58199 3.17251 7.59937 2.02305 10.0428 1.66467C11.7521 1.60284 13.4429 1.52353 15.1151 1.42686C15.9866 1.36004 16.4861 0.884417 16.6137 0Z" fill="white"/>
<path fill-rule="evenodd" clip-rule="evenodd" d="M26.7242 1.07711C26.1109 1.19057 25.6737 1.5496 25.4124 2.15422C25.3363 12.2871 25.3363 22.4198 25.4124 32.5527C25.5848 33.2723 26.0221 33.6712 26.7242 33.7495C26.7242 34.1085 26.7242 34.4675 26.7242 34.8266C24.0244 34.8266 21.3248 34.8266 18.625 34.8266C18.625 34.4675 18.625 34.1085 18.625 33.7495C19.3182 33.6483 19.7364 33.2495 19.8798 32.5527C19.9938 21.722 20.0319 10.871 19.9939 0C22.2374 0 24.4807 0 26.7242 0C26.7242 0.359037 26.7242 0.718074 26.7242 1.07711Z" fill="white"/>
<path fill-rule="evenodd" clip-rule="evenodd" d="M62.4891 20.5706C62.329 21.1376 62.2521 21.7322 62.2586 22.3542C62.126 25.6785 62.1069 29.0079 62.2009 32.3422C62.4896 33.0381 63.0083 33.4345 63.7572 33.5312C63.7572 33.9276 63.7572 34.324 63.7572 34.7203C60.9136 34.7203 58.0701 34.7203 55.2266 34.7203C55.2266 34.324 55.2266 33.9276 55.2266 33.5312C55.974 33.4557 56.4544 33.0594 56.6675 32.3422C56.7444 25.6042 56.7444 18.8663 56.6675 12.1283C56.6326 11.8444 56.5365 11.5867 56.3794 11.3554C56.0101 11.1172 55.6259 10.9389 55.2266 10.8203C55.2266 10.4636 55.2266 10.1069 55.2266 9.75019C57.5321 9.75019 59.8377 9.75019 62.1433 9.75019C62.1242 10.8606 62.1433 11.9705 62.2009 13.0795C63.5028 11.149 65.2896 10.0194 67.5614 9.69074C67.7576 9.42499 67.8729 9.12772 67.9072 8.79895C68.2915 8.79895 68.6758 8.79895 69.06 8.79895C69.06 11.4149 69.06 14.0308 69.06 16.6467C68.6758 16.6467 68.2915 16.6467 67.9072 16.6467C67.8395 16.0799 67.532 15.7033 66.985 15.5171C65.1559 15.4804 63.8686 16.3326 63.1232 18.0736C62.7854 18.8727 62.574 19.7051 62.4891 20.5706Z" fill="white"/>
<path fill-rule="evenodd" clip-rule="evenodd" d="M90.1603 11.5338C90.1672 11.5984 90.2056 11.638 90.2755 11.6527C90.3903 11.0235 90.4286 10.3893 90.3908 9.75021C92.927 9.75021 95.4631 9.75021 97.9992 9.75021C97.9992 10.1465 97.9992 10.543 97.9992 10.9393C97.3333 10.9746 96.853 11.2917 96.5582 11.8905C96.4814 18.5096 96.4814 25.1286 96.5582 31.7477C96.7286 32.458 97.1705 32.8543 97.884 32.9367C97.884 33.2935 97.884 33.6502 97.884 34.0069C95.3478 34.0069 92.8117 34.0069 90.2755 34.0069C90.3135 33.3284 90.275 32.6547 90.1603 31.9855C90.0903 32.0002 90.0519 32.0398 90.045 32.1044C84.8979 35.714 79.7487 35.7339 74.5976 32.1639C70.5444 28.2652 69.1803 23.5288 70.5052 17.9547C72.338 12.8156 75.8924 9.86282 81.1685 9.09624C84.4615 8.79576 87.4587 9.60836 90.1603 11.5338Z" fill="white"/>
<path fill-rule="evenodd" clip-rule="evenodd" d="M39.3169 9.15573C42.6603 8.9442 45.8113 9.63777 48.7698 11.2366C52.4664 13.6889 54.3108 17.1966 54.3032 21.7597C54.209 28.2576 51.1349 32.3995 45.0809 34.1853C42.3987 34.8452 39.7089 34.8848 37.0114 34.3042C31.1349 32.3838 28.0608 28.2418 27.7891 21.8786C28.0305 15.8887 30.8739 11.8658 36.3197 9.80971C37.3246 9.55002 38.3236 9.33207 39.3169 9.15573Z" fill="white"/>
<path fill-rule="evenodd" clip-rule="evenodd" d="M39.905 13.5551C45.8949 13.491 48.873 16.5428 48.8391 22.7108C48.4756 26.9692 46.2661 29.4861 42.2105 30.2613C37.3815 30.6364 34.4419 28.3971 33.3917 23.5431C32.9908 20.9872 33.4903 18.6487 34.8903 16.5277C36.2197 14.9014 37.8913 13.9106 39.905 13.5551Z" fill="#00557C"/>
<path fill-rule="evenodd" clip-rule="evenodd" d="M81.9771 13.5551C84.5189 13.2261 86.7477 13.9197 88.6633 15.636C90.5061 17.84 91.2169 20.3965 90.796 23.3054C90.3901 26.8551 88.5264 29.1341 85.205 30.1424C79.2457 30.9323 75.9795 28.2371 75.4062 22.0569C75.4457 18.3662 77.0596 15.7107 80.248 14.0902C80.8363 13.9028 81.4127 13.7245 81.9771 13.5551Z" fill="#00557C"/>
<g clip-path="url(#clip0_489_1304)">
<path opacity="0.122" fill-rule="evenodd" clip-rule="evenodd" d="M141.211 36.0881C141.222 36.0881 141.232 36.0881 141.243 36.0881C141.284 36.0955 141.315 36.085 141.338 36.0572C141.338 36.0365 141.348 36.0263 141.369 36.0263C141.391 36.0674 141.412 36.0674 141.433 36.0263C141.443 36.0263 141.454 36.0263 141.464 36.0263C141.496 36.0315 141.517 36.0213 141.528 35.9954C141.538 35.9954 141.549 35.9954 141.559 35.9954C141.591 36.0006 141.612 35.9904 141.623 35.9645C141.644 35.9543 141.665 35.9438 141.686 35.9336C141.697 35.9747 141.707 35.9747 141.718 35.9336C141.739 35.9234 141.76 35.9128 141.781 35.9026C141.792 35.9438 141.802 35.9438 141.813 35.9026C141.834 35.9026 141.855 35.9026 141.876 35.9026C141.897 35.9026 141.908 35.8924 141.908 35.8717C146.691 34.2681 150.148 31.2287 152.279 26.7531C153.164 24.7844 153.645 22.7237 153.719 20.571C153.751 14.1467 153.762 7.71733 153.751 1.28276C147.412 1.27247 141.079 1.28277 134.751 1.31368C134.518 1.30802 134.286 1.31832 134.054 1.34459C133.889 1.34286 133.73 1.36347 133.579 1.40641C128.529 1.99951 124.428 4.22508 121.277 8.0831C118.916 11.1053 117.655 14.5261 117.493 18.3454C117.471 18.7787 117.392 18.7684 117.255 18.3145C117.179 16.7526 117.359 15.2174 117.794 13.7088C119.216 8.79837 122.177 5.06332 126.676 2.50373C129.257 1.10633 132.022 0.333562 134.973 0.185438C141.264 0.164831 147.555 0.164831 153.846 0.185438C154.233 0.196107 154.513 0.366114 154.685 0.695463C154.763 0.884012 154.805 1.07978 154.812 1.28276C154.833 7.537 154.833 13.7913 154.812 20.0455C154.579 25.0479 152.579 29.226 148.811 32.5798C147.153 33.9896 145.284 35.0715 143.206 35.8254C142.684 36.0056 142.151 36.1342 141.607 36.2118C141.464 36.1972 141.332 36.1561 141.211 36.0881Z" fill="#030303"/>
<path fill-rule="evenodd" clip-rule="evenodd" d="M134.746 1.3137C141.069 1.3137 147.392 1.3137 153.715 1.3137C153.715 7.73281 153.715 14.1519 153.715 20.571C153.64 22.7237 153.16 24.7844 152.274 26.7531C150.143 31.2287 146.686 34.2681 141.903 35.8718C141.882 35.8718 141.871 35.882 141.871 35.9027C141.85 35.9027 141.829 35.9027 141.808 35.9027C141.798 35.9027 141.787 35.9027 141.776 35.9027C141.755 35.9129 141.734 35.9234 141.713 35.9336C141.703 35.9336 141.692 35.9336 141.681 35.9336C141.66 35.9438 141.639 35.9543 141.618 35.9645C141.587 35.9592 141.566 35.9694 141.555 35.9954C141.544 35.9954 141.534 35.9954 141.523 35.9954C141.492 35.9901 141.471 36.0003 141.46 36.0263C141.449 36.0263 141.439 36.0263 141.428 36.0263C141.407 36.0263 141.386 36.0263 141.365 36.0263C141.344 36.0263 141.333 36.0365 141.333 36.0572C141.292 36.0498 141.261 36.0603 141.238 36.0881C141.228 36.0881 141.217 36.0881 141.206 36.0881C141.111 36.1088 141.016 36.1292 140.921 36.15C145.179 34.6165 148.298 31.8549 150.279 27.8659C151.189 25.9555 151.68 23.9463 151.751 21.8383C151.783 15.7438 151.794 9.64414 151.783 3.53926C145.724 3.5341 139.665 3.53926 133.606 3.55472C133.442 3.5601 133.284 3.57555 133.131 3.60108C128.398 4.04376 124.497 6.02203 121.431 9.53592C119.149 12.26 117.846 15.382 117.52 18.9018C117.488 18.7222 117.478 18.5368 117.488 18.3454C117.65 14.5261 118.912 11.1053 121.272 8.08312C124.423 4.22511 128.524 1.99954 133.575 1.40643C133.741 1.41254 133.899 1.39193 134.05 1.34461C134.281 1.31834 134.513 1.30804 134.746 1.3137Z" fill="#FDFDFE"/>
<path opacity="0.922" fill-rule="evenodd" clip-rule="evenodd" d="M134.053 1.34464C133.903 1.39196 133.744 1.41257 133.578 1.40646C133.729 1.36353 133.887 1.34292 134.053 1.34464Z" fill="#B8B8B8"/>
<path opacity="0.604" fill-rule="evenodd" clip-rule="evenodd" d="M134.75 1.3137C141.078 1.2828 147.411 1.27249 153.75 1.28279C153.76 7.71736 153.75 14.1468 153.718 20.571C153.718 14.1519 153.718 7.73281 153.718 1.3137C147.396 1.3137 141.073 1.3137 134.75 1.3137Z" fill="#9D9D9D"/>
<path opacity="0.992" fill-rule="evenodd" clip-rule="evenodd" d="M151.757 21.8384C151.757 15.749 151.757 9.65959 151.757 3.5702C145.55 3.56056 139.343 3.57085 133.137 3.60111C133.289 3.57558 133.448 3.56012 133.612 3.55475C139.671 3.53929 145.729 3.53413 151.788 3.53929C151.799 9.64417 151.788 15.7438 151.757 21.8384Z" fill="#226A8C"/>
<path fill-rule="evenodd" clip-rule="evenodd" d="M151.751 21.8384C151.68 23.9463 151.189 25.9555 150.279 27.866C148.298 31.855 145.179 34.6165 140.921 36.15C139.611 36.5831 138.271 36.8612 136.9 36.9846C130.429 36.9846 123.959 36.9846 117.488 36.9846C117.478 30.9567 117.489 24.9292 117.52 18.9019C117.846 15.382 119.149 12.26 121.431 9.53596C124.497 6.02207 128.397 4.04379 133.131 3.60112C139.338 3.57086 145.545 3.56057 151.751 3.57021C151.751 9.6596 151.751 15.749 151.751 21.8384Z" fill="#00557C"/>
</g>
<defs>
<clipPath id="clip0_489_1304">
<rect width="38" height="37" fill="white" transform="translate(117)"/>
</clipPath>
</defs>
</svg>
