<svg width="55" height="42" viewBox="0 0 55 42" fill="none" xmlns="http://www.w3.org/2000/svg">
<path d="M9.8368 41.9033V39.1128C9.8368 38.0427 9.18552 37.3454 8.11651 37.3454C7.55506 37.3454 6.95431 37.5318 6.53547 38.1314C6.20982 37.6194 5.74943 37.3454 5.04762 37.3454C4.78668 37.3341 4.52702 37.3877 4.29186 37.5014C4.05671 37.615 3.8534 37.7852 3.70013 37.9967V37.4352H2.81641V41.8999H3.70013V39.3453C3.70013 38.5593 4.16501 38.1831 4.8163 38.1831C5.46758 38.1831 5.83926 38.6019 5.83926 39.3453V41.9033H6.72299V39.3453C6.72299 38.5593 7.18787 38.1831 7.83916 38.1831C8.49044 38.1831 8.86212 38.6019 8.86212 39.3453V41.9033H9.8368ZM24.347 37.4846H22.7188V36.1371H21.8373V37.4846H20.9075V38.2707H21.8373V40.3682C21.8373 41.3912 22.209 41.9965 23.3251 41.9965C23.748 41.9876 24.1623 41.8759 24.5323 41.6708L24.2527 40.8848C24.0018 41.0416 23.7108 41.1223 23.415 41.1172C22.9501 41.1172 22.7176 40.8376 22.7176 40.3727V38.2347H24.3458V37.4902L24.347 37.4846ZM32.625 37.3454C32.3843 37.34 32.1463 37.3972 31.9344 37.5114C31.7224 37.6255 31.5437 37.7928 31.4157 37.9967V37.4352H30.5319V41.8999H31.4157V39.3924C31.4157 38.648 31.7873 38.1831 32.3926 38.1831C32.5968 38.1914 32.7995 38.2226 32.9967 38.2763L33.2763 37.4386C33.0631 37.3848 32.8448 37.3536 32.625 37.3454ZM20.1147 37.8103C19.6499 37.4846 18.9986 37.3454 18.3013 37.3454C17.1851 37.3454 16.4878 37.8574 16.4878 38.7412C16.4878 39.4856 16.9998 39.9034 17.9756 40.0437L18.4405 40.0898C18.9525 40.183 19.2782 40.3694 19.2782 40.6018C19.2782 40.9275 18.9065 41.1633 18.2081 41.1633C17.6747 41.1742 17.1524 41.011 16.7202 40.6984L16.2553 41.3957C16.9066 41.8606 17.6971 41.9572 18.1643 41.9572C19.4668 41.9572 20.1642 41.353 20.1642 40.5154C20.1642 39.7293 19.6027 39.3531 18.6291 39.2128L18.1643 39.1667C17.7454 39.1207 17.3782 38.9803 17.3782 38.7019C17.3782 38.3762 17.7499 38.1404 18.262 38.1404C18.8234 38.1404 19.3781 38.3728 19.6577 38.5121L20.1147 37.8103ZM33.6019 39.6709C33.6019 41.0184 34.4857 41.9965 35.9275 41.9965C36.5788 41.9965 37.0437 41.8572 37.5085 41.4844L37.0437 40.7871C36.7145 41.0537 36.305 41.2012 35.8815 41.2059C35.0954 41.2059 34.4857 40.6018 34.4857 39.7181C34.4857 38.8344 35.0876 38.2347 35.8815 38.2347C36.305 38.2394 36.7145 38.387 37.0437 38.6536L37.5085 37.9563C37.0437 37.5846 36.5788 37.4442 35.9275 37.4442C34.5317 37.351 33.6019 38.3279 33.6019 39.6765V39.6709ZM27.3698 37.3454C26.0673 37.3454 25.1835 38.2752 25.1835 39.6709C25.1835 41.0667 26.1133 41.9965 27.4619 41.9965C28.118 42.0103 28.7587 41.7969 29.2754 41.3923L28.8105 40.7411C28.4368 41.0306 27.9805 41.1935 27.5079 41.2059C26.9038 41.2059 26.2525 40.8343 26.1605 40.0437H29.4629V39.672C29.4629 38.2763 28.6252 37.3465 27.3698 37.3465V37.3454ZM27.3238 38.1831C27.9751 38.1831 28.44 38.6019 28.486 39.2992H26.0684C26.2076 38.648 26.6298 38.1831 27.3238 38.1831ZM15.2784 39.6709V37.4386H14.3947V38C14.069 37.5812 13.6086 37.3488 12.9529 37.3488C11.6975 37.3488 10.7666 38.3257 10.7666 39.6743C10.7666 41.0229 11.6963 41.9998 12.9529 41.9998C13.6041 41.9998 14.069 41.7674 14.3947 41.3485V41.91H15.2784V39.6709ZM11.6975 39.6709C11.6975 38.8332 12.2095 38.1831 13.0932 38.1831C13.9309 38.1831 14.4407 38.8344 14.4407 39.6709C14.4407 40.5547 13.8793 41.1588 13.0932 41.1588C12.2095 41.2048 11.6975 40.5075 11.6975 39.6709ZM46.0673 37.3454C45.8266 37.34 45.5886 37.3972 45.3767 37.5114C45.1647 37.6255 44.9859 37.7928 44.8579 37.9967V37.4352H43.9742V41.8999H44.8568V39.3924C44.8568 38.648 45.2285 38.1831 45.8338 38.1831C46.038 38.1914 46.2406 38.2226 46.4379 38.2763L46.7175 37.4386C46.5042 37.3848 46.2859 37.3536 46.0662 37.3454H46.0673ZM42.6256 39.6709V37.4386H41.7419V38C41.4162 37.5812 40.9559 37.3488 40.3001 37.3488C39.0447 37.3488 38.1138 38.3257 38.1138 39.6743C38.1138 41.0229 39.0435 41.9998 40.3001 41.9998C40.9514 41.9998 41.4162 41.7674 41.7419 41.3485V41.91H42.6256V39.6709ZM39.0447 39.6709C39.0447 38.8332 39.5567 38.1831 40.4404 38.1831C41.2781 38.1831 41.7879 38.8344 41.7879 39.6709C41.7879 40.5547 41.2265 41.1588 40.4404 41.1588C39.5567 41.2048 39.0447 40.5075 39.0447 39.6709ZM51.6021 39.6709V35.6711H50.7184V37.9967C50.3927 37.5778 49.9324 37.3454 49.2766 37.3454C48.0212 37.3454 47.0903 38.3223 47.0903 39.6709C47.0903 41.0195 48.02 41.9965 49.2766 41.9965C49.9279 41.9965 50.3927 41.764 50.7184 41.3452V41.9066H51.6021V39.6709ZM48.0212 39.6709C48.0212 38.8332 48.5332 38.1831 49.4169 38.1831C50.2546 38.1831 50.7644 38.8344 50.7644 39.6709C50.7644 40.5547 50.203 41.1588 49.4169 41.1588C48.5321 41.2059 48.02 40.5086 48.02 39.6709H48.0212Z" fill="black"/>
<path d="M19.0908 3.58105H35.2292V29.9042H19.0908V3.58105Z" fill="#FF5F00"/>
<path d="M20.7193 16.7425C20.7199 14.2102 21.2933 11.7108 22.3967 9.43157C23.5 7.15229 25.1048 5.15216 27.0907 3.58095C24.6209 1.63913 21.6546 0.431393 18.5309 0.0958005C15.4072 -0.239792 12.252 0.310302 9.42618 1.6832C6.60032 3.0561 4.21777 5.1964 2.55087 7.85944C0.883972 10.5225 0 13.6008 0 16.7425C0 19.8842 0.883972 22.9625 2.55087 25.6256C4.21777 28.2886 6.60032 30.4289 9.42618 31.8018C12.252 33.1747 15.4072 33.7248 18.5309 33.3892C21.6546 33.0536 24.6209 31.8459 27.0907 29.9041C25.1048 28.3329 23.5 26.3327 22.3967 24.0535C21.2933 21.7742 20.7199 19.2748 20.7193 16.7425Z" fill="#EB001B"/>
<path d="M54.2055 16.7424C54.2078 19.8819 53.3265 22.9585 51.6623 25.6206C49.9981 28.2826 47.6184 30.4226 44.7951 31.7957C41.9719 33.1687 38.8192 33.7195 35.6977 33.385C32.5761 33.0505 29.6117 31.8441 27.1436 29.904C29.1299 28.3332 30.735 26.3331 31.8384 24.0538C32.9419 21.7744 33.5151 19.2748 33.5151 16.7424C33.5151 14.21 32.9419 11.7104 31.8384 9.43108C30.735 7.15171 29.1299 5.15167 27.1436 3.58087C29.6117 1.64072 32.5761 0.434404 35.6977 0.0998745C38.8192 -0.234654 41.9719 0.316116 44.7951 1.68919C47.6184 3.06227 49.9981 5.20221 51.6623 7.86426C53.3265 10.5263 54.2078 13.603 54.2055 16.7424Z" fill="#F79E1B"/>
</svg>
