<svg width="13" height="18" viewBox="0 0 13 18" fill="none" xmlns="http://www.w3.org/2000/svg">
<path d="M9.75 8.40755V9.35547C9.75 9.57891 9.56719 9.76172 9.34375 9.76172H3.65625C3.43281 9.76172 3.25 9.57891 3.25 9.35547V8.40755C3.25 8.18411 3.43281 8.0013 3.65625 8.0013H9.34375C9.56719 8.0013 9.75 8.18411 9.75 8.40755ZM9.34375 10.8451H3.65625C3.43281 10.8451 3.25 11.0279 3.25 11.2513V12.1992C3.25 12.4227 3.43281 12.6055 3.65625 12.6055H9.34375C9.56719 12.6055 9.75 12.4227 9.75 12.1992V11.2513C9.75 11.0279 9.56719 10.8451 9.34375 10.8451ZM13 4.47708V15.7201C13 16.6172 12.2721 17.3451 11.375 17.3451H1.625C0.727865 17.3451 0 16.6172 0 15.7201V1.63672C0 0.739583 0.727865 0.0117188 1.625 0.0117188H8.53464C8.96458 0.0117188 9.3776 0.184375 9.68229 0.489063L12.5227 3.32943C12.8273 3.63073 13 4.04714 13 4.47708ZM8.66667 1.76875V4.34505H11.243L8.66667 1.76875ZM11.375 15.7201V5.97005H7.85417C7.40391 5.97005 7.04167 5.60781 7.04167 5.15755V1.63672H1.625V15.7201H11.375Z" fill="#00557C"/>
</svg>
