<svg width="19" height="20" viewBox="0 0 19 20" fill="none" xmlns="http://www.w3.org/2000/svg">
<path d="M8.65097 15.3327V16.1027C8.65097 16.3069 8.56984 16.5028 8.42543 16.6472C8.28102 16.7916 8.08516 16.8727 7.88094 16.8727H6.34088V17.6428C6.34088 18.0512 6.17863 18.4429 5.88981 18.7317C5.601 19.0206 5.20928 19.1828 4.80083 19.1828H1.72072C1.31227 19.1828 0.920552 19.0206 0.631736 18.7317C0.342919 18.4429 0.180664 18.0512 0.180664 17.6428V15.6515C0.180751 15.243 0.343064 14.8514 0.6319 14.5626L6.59191 8.60263C6.22647 7.36171 6.26095 6.03724 6.69046 4.81701C7.11997 3.59679 7.92272 2.54274 8.98489 1.80433C10.047 1.06592 11.3147 0.680625 12.6081 0.703077C13.9015 0.725528 15.1551 1.15459 16.191 1.92941C17.2269 2.70424 17.9925 3.78551 18.3794 5.01991C18.7664 6.25431 18.7548 7.57918 18.3466 8.80667C17.9383 10.0342 17.1539 11.102 16.1047 11.8587C15.0555 12.6154 13.7947 13.0226 12.5011 13.0226H10.9595V14.5626C10.9595 14.7669 10.8784 14.9627 10.734 15.1071C10.5896 15.2515 10.3937 15.3327 10.1895 15.3327H8.64943H8.65097ZM14.0412 6.86237C14.4496 6.86237 14.8413 6.70011 15.1301 6.4113C15.419 6.12248 15.5812 5.73076 15.5812 5.32231C15.5812 4.91387 15.419 4.52215 15.1301 4.23333C14.8413 3.94451 14.4496 3.78226 14.0412 3.78226C13.6327 3.78226 13.241 3.94451 12.9522 4.23333C12.6634 4.52215 12.5011 4.91387 12.5011 5.32231C12.5011 5.73076 12.6634 6.12248 12.9522 6.4113C13.241 6.70011 13.6327 6.86237 14.0412 6.86237Z" fill="#00557C"/>
</svg>
