<svg width="26" height="26" viewBox="0 0 26 26" fill="none" xmlns="http://www.w3.org/2000/svg">
<path d="M12.8165 16.0254C14.5861 16.0254 16.0206 14.5904 16.0206 12.8203C16.0206 11.0502 14.5861 9.61523 12.8165 9.61523C11.0469 9.61523 9.6123 11.0502 9.6123 12.8203C9.6123 14.5904 11.0469 16.0254 12.8165 16.0254Z" stroke="#00557C" stroke-width="1.5" stroke-miterlimit="10" stroke-linecap="round" stroke-linejoin="round"/>
<path d="M2.13623 13.7604V11.8801C2.13623 10.769 3.04408 9.85018 4.16554 9.85018C6.09872 9.85018 6.88908 8.48268 5.91715 6.80536C5.36176 5.84384 5.69286 4.59386 6.66479 4.03831L8.51252 2.98063C9.35629 2.4785 10.4457 2.77764 10.9477 3.62165L11.0652 3.82464C12.0264 5.50196 13.6071 5.50196 14.5791 3.82464L14.6966 3.62165C15.1985 2.77764 16.288 2.4785 17.1317 2.98063L18.9795 4.03831C19.9514 4.59386 20.2825 5.84384 19.7271 6.80536C18.7552 8.48268 19.5455 9.85018 21.4787 9.85018C22.5895 9.85018 23.508 10.7583 23.508 11.8801V13.7604C23.508 14.8715 22.6002 15.7903 21.4787 15.7903C19.5455 15.7903 18.7552 17.1578 19.7271 18.8351C20.2825 19.8073 19.9514 21.0466 18.9795 21.6021L17.1317 22.6598C16.288 23.1619 15.1985 22.8628 14.6966 22.0188L14.5791 21.8158C13.6178 20.1385 12.0371 20.1385 11.0652 21.8158L10.9477 22.0188C10.4457 22.8628 9.35629 23.1619 8.51252 22.6598L6.66479 21.6021C5.69286 21.0466 5.36176 19.7966 5.91715 18.8351C6.88908 17.1578 6.09872 15.7903 4.16554 15.7903C3.04408 15.7903 2.13623 14.8715 2.13623 13.7604Z" stroke="#00557C" stroke-width="1.5" stroke-miterlimit="10" stroke-linecap="round" stroke-linejoin="round"/>
</svg>
