<svg width="43" height="41" viewBox="0 0 43 41" fill="none" xmlns="http://www.w3.org/2000/svg">
<path d="M2 2L2.56894 2.18166C5.40394 3.08694 6.82145 3.53956 7.63221 4.61717C8.443 5.69475 8.443 7.1261 8.443 9.98881V15.3728C8.443 21.1919 8.443 24.1014 10.3301 25.9092C12.2172 27.717 15.2545 27.717 21.329 27.717H38.5103" stroke="white" stroke-width="2.5" stroke-linecap="round"/>
<path d="M13.8113 32.8602C15.5905 32.8602 17.0328 34.242 17.0328 35.9463C17.0328 37.6506 15.5905 39.0323 13.8113 39.0323C12.0322 39.0323 10.5898 37.6506 10.5898 35.9463C10.5898 34.242 12.0322 32.8602 13.8113 32.8602Z" stroke="white" stroke-width="2.5"/>
<path d="M33.1434 32.8605C34.9225 32.8605 36.3649 34.242 36.3649 35.9465C36.3649 37.6508 34.9225 39.0326 33.1434 39.0326C31.3642 39.0326 29.9219 37.6508 29.9219 35.9465C29.9219 34.242 31.3642 32.8605 33.1434 32.8605Z" stroke="white" stroke-width="2.5"/>
<path d="M21.3297 14.3441H14.8867" stroke="white" stroke-width="2.5" stroke-linecap="round"/>
<path d="M8.4375 8.172H33.0291C37.4426 8.172 39.6491 8.172 40.6042 9.55919C41.559 10.9464 40.6897 12.8894 38.9511 16.7755L38.0306 18.8328C37.219 20.647 36.8131 21.5541 36.0062 22.0639C35.1994 22.5735 34.1691 22.5735 32.1087 22.5735H8.4375" stroke="white" stroke-width="2.5"/>
</svg>
