<svg width="34" height="33" viewBox="0 0 34 33" fill="none" xmlns="http://www.w3.org/2000/svg">
<path d="M1 1.23151L1.45868 1.37797C3.74428 2.10781 4.88709 2.47271 5.54073 3.34149C6.19439 4.21024 6.19439 5.3642 6.19439 7.67214V12.0128C6.19439 16.7041 6.19439 19.0498 7.7158 20.5073C9.2372 21.9647 11.6859 21.9647 16.5832 21.9647H30.4349" stroke="#00557C" stroke-width="2" stroke-linecap="round"/>
<path d="M10.523 26.1113C11.9574 26.1113 13.1202 27.2252 13.1202 28.5993C13.1202 29.9733 11.9574 31.0873 10.523 31.0873C9.08858 31.0873 7.92578 29.9733 7.92578 28.5993C7.92578 27.2252 9.08858 26.1113 10.523 26.1113Z" stroke="#59B59A" stroke-width="2"/>
<path d="M26.1089 26.1114C27.5433 26.1114 28.7061 27.2252 28.7061 28.5994C28.7061 29.9735 27.5433 31.0874 26.1089 31.0874C24.6746 31.0874 23.5117 29.9735 23.5117 28.5994C23.5117 27.2252 24.6746 26.1114 26.1089 26.1114Z" stroke="#59B59A" stroke-width="2"/>
<path d="M16.585 11.1834H11.3906" stroke="#59B59A" stroke-width="2" stroke-linecap="round"/>
<path d="M6.19141 6.20737H26.0174C29.5755 6.20737 31.3544 6.20737 32.1244 7.32574C32.8942 8.44412 32.1933 10.0106 30.7917 13.1435L30.0496 14.8022C29.3953 16.2648 29.068 16.9961 28.4175 17.4071C27.767 17.818 26.9364 17.818 25.2753 17.818H6.19141" stroke="#00557C" stroke-width="2"/>
</svg>
