<svg width="18" height="18" viewBox="0 0 18 18" fill="none" xmlns="http://www.w3.org/2000/svg">
<path d="M13.4998 17.3335C10.0976 17.3291 6.83593 15.9756 4.43017 13.5698C2.02441 11.1641 0.670914 7.90243 0.666504 4.50018C0.666504 3.48351 1.07037 2.50849 1.78926 1.7896C2.50815 1.07071 3.48317 0.666843 4.49984 0.666843C4.71512 0.665203 4.93004 0.684742 5.1415 0.725177C5.34593 0.755427 5.54689 0.805668 5.7415 0.875177C5.87838 0.923201 6.00035 1.00612 6.09535 1.11574C6.19035 1.22535 6.25509 1.35787 6.28317 1.50018L7.42484 6.50018C7.45561 6.6359 7.4519 6.77716 7.41406 6.91108C7.37621 7.045 7.30543 7.16731 7.20817 7.26684C7.09984 7.38351 7.0915 7.39184 6.0665 7.92518C6.88733 9.72589 8.3275 11.172 10.1248 12.0002C10.6665 10.9668 10.6748 10.9585 10.7915 10.8502C10.891 10.7529 11.0133 10.6821 11.1473 10.6443C11.2812 10.6064 11.4225 10.6027 11.5582 10.6335L16.5582 11.7752C16.6959 11.8071 16.8233 11.8736 16.9282 11.9684C17.0332 12.0632 17.1123 12.1831 17.1582 12.3168C17.2285 12.5146 17.2815 12.7182 17.3165 12.9252C17.35 13.1346 17.3668 13.3464 17.3665 13.5585C17.3511 14.5708 16.9359 15.536 16.2115 16.2432C15.487 16.9505 14.5122 17.3424 13.4998 17.3335Z" fill="#00557C"/>
</svg>
