<svg width="51" height="33" viewBox="0 0 51 33" fill="none" xmlns="http://www.w3.org/2000/svg">
<g clip-path="url(#clip0_254_1743)">
<mask id="mask0_254_1743" style="mask-type:luminance" maskUnits="userSpaceOnUse" x="0" y="0" width="51" height="33">
<path d="M51 0H0V33H51V0Z" fill="white"/>
</mask>
<g mask="url(#mask0_254_1743)">
<path d="M2.61538 0H48.3846C49.8291 0 51 1.18199 51 2.64V30.36C51 31.8181 49.8291 33 48.3846 33H2.61538C1.17097 33 0 31.8181 0 30.36V2.64C0 1.18199 1.17097 0 2.61538 0Z" fill="#1434CB"/>
<path d="M32.0266 9.44531C28.9643 9.44531 26.2277 11.0479 26.2277 14.0089C26.2277 17.4046 31.0812 17.6391 31.0812 19.345C31.0812 20.0633 30.2659 20.7062 28.8735 20.7062C26.8974 20.7062 25.4205 19.8078 25.4205 19.8078L24.7885 22.7958C24.7885 22.7958 26.49 23.5547 28.7488 23.5547C32.0969 23.5547 34.7314 21.8734 34.7314 18.8617C34.7314 15.2736 29.8577 15.0461 29.8577 13.4627C29.8577 12.9 30.5269 12.2835 31.9154 12.2835C33.4819 12.2835 34.76 12.9369 34.76 12.9369L35.3785 10.0511C35.3785 10.0511 33.9878 9.44531 32.0266 9.44531ZM4.0097 9.66311L3.93555 10.0987C3.93555 10.0987 5.22385 10.3368 6.38418 10.8117C7.87822 11.3562 7.9846 11.6733 8.23627 12.6579L10.9781 23.3301H14.6536L20.3159 9.66311H16.6489L13.0105 18.9553L11.5258 11.0788C11.3896 10.1774 10.7 9.66311 9.85578 9.66311H4.0097ZM21.7905 9.66311L18.9138 23.3301H22.4107L25.2773 9.66311H21.7905ZM41.2936 9.66311C40.4504 9.66311 40.0036 10.119 39.6758 10.9155L34.5527 23.3301H38.2198L38.9292 21.261H43.3968L43.8282 23.3301H47.0639L44.2411 9.66311H41.2936ZM41.7705 13.3555L42.8576 18.484H39.9454L41.7705 13.3555Z" fill="white"/>
</g>
</g>
<defs>
<clipPath id="clip0_254_1743">
<rect width="51" height="33" fill="white"/>
</clipPath>
</defs>
</svg>
