<svg width="22" height="21" viewBox="0 0 22 21" fill="none" xmlns="http://www.w3.org/2000/svg">
<path d="M18.7778 19.2198H3.22222C1.99492 19.2198 1 18.2249 1 16.9975V6.9976C1 5.77031 1.99492 4.77539 3.22222 4.77539H18.7778C20.0051 4.77539 21 5.77031 21 6.9976V16.9975C21 18.2249 20.0051 19.2198 18.7778 19.2198Z" stroke="#00557C" stroke-width="2"/>
<path d="M15.9999 12.5532C15.6931 12.5532 15.4443 12.3045 15.4443 11.9977C15.4443 11.6909 15.6931 11.4421 15.9999 11.4421C16.3067 11.4421 16.5554 11.6909 16.5554 11.9977C16.5554 12.3045 16.3067 12.5532 15.9999 12.5532Z" stroke="#00557C" stroke-width="2" stroke-linecap="round" stroke-linejoin="round"/>
<path d="M17.6667 4.77539V3.22342C17.6667 1.76336 16.2827 0.700047 14.8719 1.07624L2.64963 4.33549C1.67686 4.5949 1 5.4759 1 6.48267V6.9976" stroke="#00557C" stroke-width="2"/>
</svg>
