<svg width="29" height="29" viewBox="0 0 29 29" fill="none" xmlns="http://www.w3.org/2000/svg">
<path d="M28 7.23058C28.0001 8.09346 27.8209 8.94695 27.4738 9.73694C27.1266 10.5269 26.6191 11.2362 25.9835 11.8197C25.3478 12.4033 24.5979 12.8485 23.7811 13.127C22.9644 13.4055 22.0987 13.5113 21.2389 13.4376C19.7494 13.3117 18.1048 13.5359 17.1551 14.689L7.25433 26.71C6.94201 27.0907 6.55344 27.4017 6.11363 27.6232C5.67382 27.8446 5.19251 27.9715 4.70069 27.9957C4.20886 28.0199 3.71742 27.9409 3.25799 27.7637C2.79855 27.5865 2.38131 27.3151 2.03312 26.9669C1.68493 26.6188 1.41349 26.2015 1.2363 25.7421C1.0591 25.2827 0.980058 24.7913 1.00426 24.2995C1.02847 23.8077 1.15539 23.3264 1.37685 22.8866C1.5983 22.4468 1.9094 22.0583 2.2901 21.746L14.3117 11.8457C15.4648 10.8961 15.6891 9.2516 15.5631 7.76213C15.4702 6.67988 15.6619 5.59213 16.1192 4.60683C16.5765 3.62154 17.2835 2.77294 18.1701 2.14527C19.0567 1.51759 20.092 1.13264 21.1733 1.02863C22.2546 0.924613 23.3443 1.10515 24.3343 1.55232L19.7992 6.08717C19.9746 6.84588 20.3596 7.54008 20.9103 8.09073C21.461 8.64137 22.1552 9.02633 22.9139 9.20177L27.449 4.66691C27.8034 5.44902 28 6.31696 28 7.23058Z" stroke="#00557C" stroke-width="1.5" stroke-linecap="round" stroke-linejoin="round"/>
</svg>
