<svg width="26" height="26" viewBox="0 0 26 26" fill="none" xmlns="http://www.w3.org/2000/svg">
<path fill-rule="evenodd" clip-rule="evenodd" d="M22.1063 3.77887C19.6737 1.34334 16.4387 0.0014352 12.9928 0C5.89148 0 0.11051 5.77953 0.10764 12.8837C0.10764 15.1542 0.700375 17.3702 1.827 19.3249L0 26L6.83009 24.2074C8.71307 25.2336 10.8314 25.7747 12.9871 25.7761H12.9928C20.0927 25.7761 25.8737 19.9966 25.8766 12.8924C25.8766 9.45076 24.539 6.2144 22.1063 3.77887ZM12.9928 23.6018H12.9885C11.0668 23.6004 9.18238 23.0851 7.53765 22.1077L7.14727 21.8752L3.09428 22.9387L4.17498 18.9876L3.92095 18.5829C2.84886 16.8779 2.2834 14.9074 2.2834 12.8837C2.28627 6.97936 7.08986 2.17576 12.9971 2.17576C15.8575 2.17719 18.5456 3.29234 20.5678 5.31596C22.5885 7.34102 23.7023 10.0306 23.7008 12.8924C23.6979 18.7968 18.8943 23.6018 12.9928 23.6018ZM18.8671 15.5805C18.5442 15.4183 16.9626 14.6404 16.6669 14.5328C16.3727 14.4251 16.1589 14.372 15.9436 14.6935C15.7283 15.015 15.1112 15.7398 14.9232 15.9551C14.7352 16.1703 14.5471 16.1962 14.2257 16.0354C13.9042 15.8747 12.8665 15.5346 11.6366 14.4381C10.6793 13.5841 10.0335 12.5307 9.84544 12.2078C9.65743 11.8849 9.82535 11.7112 9.98752 11.5505C10.1325 11.4069 10.309 11.1744 10.4698 10.9864C10.6305 10.7984 10.6836 10.6649 10.7912 10.4497C10.8989 10.2344 10.8458 10.0464 10.764 9.88562C10.6836 9.72345 10.0392 8.13899 9.77081 7.49459C9.51104 6.87028 9.24553 6.95352 9.04747 6.94491C8.8609 6.9363 8.64562 6.93343 8.43177 6.93343C8.21649 6.93343 7.86774 7.0138 7.57209 7.33528C7.27644 7.6582 6.44546 8.43608 6.44546 10.0205C6.44546 11.605 7.59936 13.1363 7.7601 13.3516C7.92084 13.5669 10.0306 16.8176 13.2598 18.2126C14.029 18.5442 14.6289 18.7422 15.0954 18.8915C15.8661 19.1369 16.5679 19.101 17.1233 19.0192C17.7419 18.9274 19.0278 18.2413 19.2962 17.4893C19.5646 16.7372 19.5646 16.0928 19.4842 15.9579C19.4038 15.823 19.1871 15.7412 18.8671 15.5805Z" fill="#59B59A"/>
</svg>
